<?xml version="1.0" standalone="no"?>
 <!DOCTYPE svg PUBLIC "-//W3C//DTD SVG 1.1//EN" 
 "http://www.w3.org/Graphics/SVG/1.1/DTD/svg11.dtd"> 
<svg
  xmlns:svg="http://www.w3.org/2000/svg"
  xmlns="http://www.w3.org/2000/svg"
  xmlns:xlink="http://www.w3.org/1999/xlink"
  version="1.1"
  width="297.002200mm" height="210.007200mm" viewBox="0.000000 0.000000 297.002200 210.007200">
<title>SVG Image created as pic_programmer-top_layer.svg date 2025/10/02 18:46:04 </title>
  <desc>Image generated by PCBNEW </desc>
<g style="fill:#000000; fill-opacity:1.000000;stroke:#000000; stroke-opacity:1.000000;
stroke-linecap:round; stroke-linejoin:round;"
 transform="translate(0 0) scale(1 1)">
</g>
<g style="fill:none; 
stroke:#000000; stroke-width:0.304800; stroke-opacity:1; 
stroke-linecap:round; stroke-linejoin:round;">
<text x="81.500000" y="56.516000"
textLength="9.753601" font-size="2.032000" lengthAdjust="spacingAndGlyphs"
text-anchor="middle" opacity="0" stroke-opacity="0">+8/12V</text>
<g class="stroked-text"><desc>+8/12V</desc>
<path d="M77.290857 55.650096
L78.452000 55.650096
" />
<path d="M77.871428 56.424191
L77.871428 54.876001
" />
<path d="M79.395428 55.263049
L79.250285 55.166287
" />
<path d="M79.250285 55.166287
L79.177714 55.069525
" />
<path d="M79.177714 55.069525
L79.105142 54.876001
" />
<path d="M79.105142 54.876001
L79.105142 54.779239
" />
<path d="M79.105142 54.779239
L79.177714 54.585715
" />
<path d="M79.177714 54.585715
L79.250285 54.488953
" />
<path d="M79.250285 54.488953
L79.395428 54.392191
" />
<path d="M79.395428 54.392191
L79.685714 54.392191
" />
<path d="M79.685714 54.392191
L79.830857 54.488953
" />
<path d="M79.830857 54.488953
L79.903428 54.585715
" />
<path d="M79.903428 54.585715
L79.975999 54.779239
" />
<path d="M79.975999 54.779239
L79.975999 54.876001
" />
<path d="M79.975999 54.876001
L79.903428 55.069525
" />
<path d="M79.903428 55.069525
L79.830857 55.166287
" />
<path d="M79.830857 55.166287
L79.685714 55.263049
" />
<path d="M79.685714 55.263049
L79.395428 55.263049
" />
<path d="M79.395428 55.263049
L79.250285 55.359810
" />
<path d="M79.250285 55.359810
L79.177714 55.456572
" />
<path d="M79.177714 55.456572
L79.105142 55.650096
" />
<path d="M79.105142 55.650096
L79.105142 56.037144
" />
<path d="M79.105142 56.037144
L79.177714 56.230668
" />
<path d="M79.177714 56.230668
L79.250285 56.327430
" />
<path d="M79.250285 56.327430
L79.395428 56.424191
" />
<path d="M79.395428 56.424191
L79.685714 56.424191
" />
<path d="M79.685714 56.424191
L79.830857 56.327430
" />
<path d="M79.830857 56.327430
L79.903428 56.230668
" />
<path d="M79.903428 56.230668
L79.975999 56.037144
" />
<path d="M79.975999 56.037144
L79.975999 55.650096
" />
<path d="M79.975999 55.650096
L79.903428 55.456572
" />
<path d="M79.903428 55.456572
L79.830857 55.359810
" />
<path d="M79.830857 55.359810
L79.685714 55.263049
" />
<path d="M81.717714 54.295430
L80.411428 56.908001
" />
<path d="M83.023999 56.424191
L82.153142 56.424191
" />
<path d="M82.588571 56.424191
L82.588571 54.392191
" />
<path d="M82.588571 54.392191
L82.443428 54.682477
" />
<path d="M82.443428 54.682477
L82.298285 54.876001
" />
<path d="M82.298285 54.876001
L82.153142 54.972763
" />
<path d="M83.604571 54.585715
L83.677143 54.488953
" />
<path d="M83.677143 54.488953
L83.822286 54.392191
" />
<path d="M83.822286 54.392191
L84.185143 54.392191
" />
<path d="M84.185143 54.392191
L84.330286 54.488953
" />
<path d="M84.330286 54.488953
L84.402857 54.585715
" />
<path d="M84.402857 54.585715
L84.475428 54.779239
" />
<path d="M84.475428 54.779239
L84.475428 54.972763
" />
<path d="M84.475428 54.972763
L84.402857 55.263049
" />
<path d="M84.402857 55.263049
L83.532000 56.424191
" />
<path d="M83.532000 56.424191
L84.475428 56.424191
" />
<path d="M84.910857 54.392191
L85.418857 56.424191
" />
<path d="M85.418857 56.424191
L85.926857 54.392191
" />
</g><text x="162.900000" y="100.116000"
textLength="9.318171" font-size="2.032000" lengthAdjust="spacingAndGlyphs"
text-anchor="middle" opacity="0" stroke-opacity="0">VCC ON</text>
<g class="stroked-text"><desc>VCC ON</desc>
<path d="M158.690857 97.992191
L159.198857 100.024191
" />
<path d="M159.198857 100.024191
L159.706857 97.992191
" />
<path d="M161.085715 99.830668
L161.013143 99.927430
" />
<path d="M161.013143 99.927430
L160.795429 100.024191
" />
<path d="M160.795429 100.024191
L160.650286 100.024191
" />
<path d="M160.650286 100.024191
L160.432572 99.927430
" />
<path d="M160.432572 99.927430
L160.287429 99.733906
" />
<path d="M160.287429 99.733906
L160.214858 99.540382
" />
<path d="M160.214858 99.540382
L160.142286 99.153334
" />
<path d="M160.142286 99.153334
L160.142286 98.863049
" />
<path d="M160.142286 98.863049
L160.214858 98.476001
" />
<path d="M160.214858 98.476001
L160.287429 98.282477
" />
<path d="M160.287429 98.282477
L160.432572 98.088953
" />
<path d="M160.432572 98.088953
L160.650286 97.992191
" />
<path d="M160.650286 97.992191
L160.795429 97.992191
" />
<path d="M160.795429 97.992191
L161.013143 98.088953
" />
<path d="M161.013143 98.088953
L161.085715 98.185715
" />
<path d="M162.609715 99.830668
L162.537143 99.927430
" />
<path d="M162.537143 99.927430
L162.319429 100.024191
" />
<path d="M162.319429 100.024191
L162.174286 100.024191
" />
<path d="M162.174286 100.024191
L161.956572 99.927430
" />
<path d="M161.956572 99.927430
L161.811429 99.733906
" />
<path d="M161.811429 99.733906
L161.738858 99.540382
" />
<path d="M161.738858 99.540382
L161.666286 99.153334
" />
<path d="M161.666286 99.153334
L161.666286 98.863049
" />
<path d="M161.666286 98.863049
L161.738858 98.476001
" />
<path d="M161.738858 98.476001
L161.811429 98.282477
" />
<path d="M161.811429 98.282477
L161.956572 98.088953
" />
<path d="M161.956572 98.088953
L162.174286 97.992191
" />
<path d="M162.174286 97.992191
L162.319429 97.992191
" />
<path d="M162.319429 97.992191
L162.537143 98.088953
" />
<path d="M162.537143 98.088953
L162.609715 98.185715
" />
<path d="M164.714286 97.992191
L165.004572 97.992191
" />
<path d="M165.004572 97.992191
L165.149715 98.088953
" />
<path d="M165.149715 98.088953
L165.294858 98.282477
" />
<path d="M165.294858 98.282477
L165.367429 98.669525
" />
<path d="M165.367429 98.669525
L165.367429 99.346858
" />
<path d="M165.367429 99.346858
L165.294858 99.733906
" />
<path d="M165.294858 99.733906
L165.149715 99.927430
" />
<path d="M165.149715 99.927430
L165.004572 100.024191
" />
<path d="M165.004572 100.024191
L164.714286 100.024191
" />
<path d="M164.714286 100.024191
L164.569144 99.927430
" />
<path d="M164.569144 99.927430
L164.424001 99.733906
" />
<path d="M164.424001 99.733906
L164.351429 99.346858
" />
<path d="M164.351429 99.346858
L164.351429 98.669525
" />
<path d="M164.351429 98.669525
L164.424001 98.282477
" />
<path d="M164.424001 98.282477
L164.569144 98.088953
" />
<path d="M164.569144 98.088953
L164.714286 97.992191
" />
<path d="M166.020572 100.024191
L166.020572 97.992191
" />
<path d="M166.020572 97.992191
L166.891429 100.024191
" />
<path d="M166.891429 100.024191
L166.891429 97.992191
" />
</g><text x="94.615000" y="138.176000"
textLength="15.414172" font-size="2.032000" lengthAdjust="spacingAndGlyphs"
text-anchor="middle" opacity="0" stroke-opacity="0">JP-CHARRAS</text>
<g class="stroked-text"><desc>JP-CHARRAS</desc>
<path d="M88.010999 136.052191
L88.010999 137.503620
" />
<path d="M88.010999 137.503620
L87.938428 137.793906
" />
<path d="M87.938428 137.793906
L87.793285 137.987430
" />
<path d="M87.793285 137.987430
L87.575571 138.084191
" />
<path d="M87.575571 138.084191
L87.430428 138.084191
" />
<path d="M88.736714 138.084191
L88.736714 136.052191
" />
<path d="M88.736714 136.052191
L89.317285 136.052191
" />
<path d="M89.317285 136.052191
L89.462428 136.148953
" />
<path d="M89.462428 136.148953
L89.534999 136.245715
" />
<path d="M89.534999 136.245715
L89.607571 136.439239
" />
<path d="M89.607571 136.439239
L89.607571 136.729525
" />
<path d="M89.607571 136.729525
L89.534999 136.923049
" />
<path d="M89.534999 136.923049
L89.462428 137.019810
" />
<path d="M89.462428 137.019810
L89.317285 137.116572
" />
<path d="M89.317285 137.116572
L88.736714 137.116572
" />
<path d="M90.260714 137.310096
L91.421857 137.310096
" />
<path d="M93.018428 137.890668
L92.945856 137.987430
" />
<path d="M92.945856 137.987430
L92.728142 138.084191
" />
<path d="M92.728142 138.084191
L92.582999 138.084191
" />
<path d="M92.582999 138.084191
L92.365285 137.987430
" />
<path d="M92.365285 137.987430
L92.220142 137.793906
" />
<path d="M92.220142 137.793906
L92.147571 137.600382
" />
<path d="M92.147571 137.600382
L92.074999 137.213334
" />
<path d="M92.074999 137.213334
L92.074999 136.923049
" />
<path d="M92.074999 136.923049
L92.147571 136.536001
" />
<path d="M92.147571 136.536001
L92.220142 136.342477
" />
<path d="M92.220142 136.342477
L92.365285 136.148953
" />
<path d="M92.365285 136.148953
L92.582999 136.052191
" />
<path d="M92.582999 136.052191
L92.728142 136.052191
" />
<path d="M92.728142 136.052191
L92.945856 136.148953
" />
<path d="M92.945856 136.148953
L93.018428 136.245715
" />
<path d="M93.671571 138.084191
L93.671571 136.052191
" />
<path d="M93.671571 137.019810
L94.542428 137.019810
" />
<path d="M94.542428 138.084191
L94.542428 136.052191
" />
<path d="M95.195570 137.503620
L95.921285 137.503620
" />
<path d="M95.050427 138.084191
L95.558427 136.052191
" />
<path d="M95.558427 136.052191
L96.066427 138.084191
" />
<path d="M97.445285 138.084191
L96.937285 137.116572
" />
<path d="M96.574428 138.084191
L96.574428 136.052191
" />
<path d="M96.574428 136.052191
L97.154999 136.052191
" />
<path d="M97.154999 136.052191
L97.300142 136.148953
" />
<path d="M97.300142 136.148953
L97.372713 136.245715
" />
<path d="M97.372713 136.245715
L97.445285 136.439239
" />
<path d="M97.445285 136.439239
L97.445285 136.729525
" />
<path d="M97.445285 136.729525
L97.372713 136.923049
" />
<path d="M97.372713 136.923049
L97.300142 137.019810
" />
<path d="M97.300142 137.019810
L97.154999 137.116572
" />
<path d="M97.154999 137.116572
L96.574428 137.116572
" />
<path d="M98.969285 138.084191
L98.461285 137.116572
" />
<path d="M98.098428 138.084191
L98.098428 136.052191
" />
<path d="M98.098428 136.052191
L98.678999 136.052191
" />
<path d="M98.678999 136.052191
L98.824142 136.148953
" />
<path d="M98.824142 136.148953
L98.896713 136.245715
" />
<path d="M98.896713 136.245715
L98.969285 136.439239
" />
<path d="M98.969285 136.439239
L98.969285 136.729525
" />
<path d="M98.969285 136.729525
L98.896713 136.923049
" />
<path d="M98.896713 136.923049
L98.824142 137.019810
" />
<path d="M98.824142 137.019810
L98.678999 137.116572
" />
<path d="M98.678999 137.116572
L98.098428 137.116572
" />
<path d="M99.549856 137.503620
L100.275571 137.503620
" />
<path d="M99.404713 138.084191
L99.912713 136.052191
" />
<path d="M99.912713 136.052191
L100.420713 138.084191
" />
<path d="M100.856142 137.987430
L101.073857 138.084191
" />
<path d="M101.073857 138.084191
L101.436714 138.084191
" />
<path d="M101.436714 138.084191
L101.581857 137.987430
" />
<path d="M101.581857 137.987430
L101.654428 137.890668
" />
<path d="M101.654428 137.890668
L101.726999 137.697144
" />
<path d="M101.726999 137.697144
L101.726999 137.503620
" />
<path d="M101.726999 137.503620
L101.654428 137.310096
" />
<path d="M101.654428 137.310096
L101.581857 137.213334
" />
<path d="M101.581857 137.213334
L101.436714 137.116572
" />
<path d="M101.436714 137.116572
L101.146428 137.019810
" />
<path d="M101.146428 137.019810
L101.001285 136.923049
" />
<path d="M101.001285 136.923049
L100.928714 136.826287
" />
<path d="M100.928714 136.826287
L100.856142 136.632763
" />
<path d="M100.856142 136.632763
L100.856142 136.439239
" />
<path d="M100.856142 136.439239
L100.928714 136.245715
" />
<path d="M100.928714 136.245715
L101.001285 136.148953
" />
<path d="M101.001285 136.148953
L101.146428 136.052191
" />
<path d="M101.146428 136.052191
L101.509285 136.052191
" />
<path d="M101.509285 136.052191
L101.726999 136.148953
" />
</g><text x="167.640000" y="49.911000"
textLength="7.721600" font-size="2.032000" lengthAdjust="spacingAndGlyphs"
text-anchor="middle" opacity="0" stroke-opacity="0">1=&gt;&gt;</text>
<g class="stroked-text"><desc>1=&gt;&gt;</desc>
<path d="M165.245142 49.819191
L164.374285 49.819191
" />
<path d="M164.809714 49.819191
L164.809714 47.787191
" />
<path d="M164.809714 47.787191
L164.664571 48.077477
" />
<path d="M164.664571 48.077477
L164.519428 48.271001
" />
<path d="M164.519428 48.271001
L164.374285 48.367763
" />
<path d="M165.898286 48.754810
L167.059429 48.754810
" />
<path d="M167.059429 49.335382
L165.898286 49.335382
" />
<path d="M167.785143 48.464525
L168.946286 49.045096
" />
<path d="M168.946286 49.045096
L167.785143 49.625668
" />
<path d="M169.672000 48.464525
L170.833143 49.045096
" />
<path d="M170.833143 49.045096
L169.672000 49.625668
" />
</g><text x="163.830000" y="89.916000"
textLength="9.753599" font-size="2.032000" lengthAdjust="spacingAndGlyphs"
text-anchor="middle" opacity="0" stroke-opacity="0">PWR ON</text>
<g class="stroked-text"><desc>PWR ON</desc>
<path d="M159.620858 89.824191
L159.620858 87.792191
" />
<path d="M159.620858 87.792191
L160.201429 87.792191
" />
<path d="M160.201429 87.792191
L160.346572 87.888953
" />
<path d="M160.346572 87.888953
L160.419143 87.985715
" />
<path d="M160.419143 87.985715
L160.491715 88.179239
" />
<path d="M160.491715 88.179239
L160.491715 88.469525
" />
<path d="M160.491715 88.469525
L160.419143 88.663049
" />
<path d="M160.419143 88.663049
L160.346572 88.759810
" />
<path d="M160.346572 88.759810
L160.201429 88.856572
" />
<path d="M160.201429 88.856572
L159.620858 88.856572
" />
<path d="M160.999715 87.792191
L161.362572 89.824191
" />
<path d="M161.362572 89.824191
L161.652858 88.372763
" />
<path d="M161.652858 88.372763
L161.943143 89.824191
" />
<path d="M161.943143 89.824191
L162.306001 87.792191
" />
<path d="M163.757429 89.824191
L163.249429 88.856572
" />
<path d="M162.886572 89.824191
L162.886572 87.792191
" />
<path d="M162.886572 87.792191
L163.467143 87.792191
" />
<path d="M163.467143 87.792191
L163.612286 87.888953
" />
<path d="M163.612286 87.888953
L163.684857 87.985715
" />
<path d="M163.684857 87.985715
L163.757429 88.179239
" />
<path d="M163.757429 88.179239
L163.757429 88.469525
" />
<path d="M163.757429 88.469525
L163.684857 88.663049
" />
<path d="M163.684857 88.663049
L163.612286 88.759810
" />
<path d="M163.612286 88.759810
L163.467143 88.856572
" />
<path d="M163.467143 88.856572
L162.886572 88.856572
" />
<path d="M165.862000 87.792191
L166.152286 87.792191
" />
<path d="M166.152286 87.792191
L166.297429 87.888953
" />
<path d="M166.297429 87.888953
L166.442572 88.082477
" />
<path d="M166.442572 88.082477
L166.515143 88.469525
" />
<path d="M166.515143 88.469525
L166.515143 89.146858
" />
<path d="M166.515143 89.146858
L166.442572 89.533906
" />
<path d="M166.442572 89.533906
L166.297429 89.727430
" />
<path d="M166.297429 89.727430
L166.152286 89.824191
" />
<path d="M166.152286 89.824191
L165.862000 89.824191
" />
<path d="M165.862000 89.824191
L165.716858 89.727430
" />
<path d="M165.716858 89.727430
L165.571715 89.533906
" />
<path d="M165.571715 89.533906
L165.499143 89.146858
" />
<path d="M165.499143 89.146858
L165.499143 88.469525
" />
<path d="M165.499143 88.469525
L165.571715 88.082477
" />
<path d="M165.571715 88.082477
L165.716858 87.888953
" />
<path d="M165.716858 87.888953
L165.862000 87.792191
" />
<path d="M167.168286 89.824191
L167.168286 87.792191
" />
<path d="M167.168286 87.792191
L168.039143 89.824191
" />
<path d="M168.039143 89.824191
L168.039143 87.792191
" />
</g><text x="125.095000" y="133.096000"
textLength="26.299886" font-size="2.032000" lengthAdjust="spacingAndGlyphs"
text-anchor="middle" opacity="0" stroke-opacity="0">PIC PROGRAMMER V03</text>
<g class="stroked-text"><desc>PIC PROGRAMMER V03</desc>
<path d="M112.612714 133.004191
L112.612714 130.972191
" />
<path d="M112.612714 130.972191
L113.193285 130.972191
" />
<path d="M113.193285 130.972191
L113.338428 131.068953
" />
<path d="M113.338428 131.068953
L113.410999 131.165715
" />
<path d="M113.410999 131.165715
L113.483571 131.359239
" />
<path d="M113.483571 131.359239
L113.483571 131.649525
" />
<path d="M113.483571 131.649525
L113.410999 131.843049
" />
<path d="M113.410999 131.843049
L113.338428 131.939810
" />
<path d="M113.338428 131.939810
L113.193285 132.036572
" />
<path d="M113.193285 132.036572
L112.612714 132.036572
" />
<path d="M114.136714 133.004191
L114.136714 130.972191
" />
<path d="M115.733285 132.810668
L115.660713 132.907430
" />
<path d="M115.660713 132.907430
L115.442999 133.004191
" />
<path d="M115.442999 133.004191
L115.297856 133.004191
" />
<path d="M115.297856 133.004191
L115.080142 132.907430
" />
<path d="M115.080142 132.907430
L114.934999 132.713906
" />
<path d="M114.934999 132.713906
L114.862428 132.520382
" />
<path d="M114.862428 132.520382
L114.789856 132.133334
" />
<path d="M114.789856 132.133334
L114.789856 131.843049
" />
<path d="M114.789856 131.843049
L114.862428 131.456001
" />
<path d="M114.862428 131.456001
L114.934999 131.262477
" />
<path d="M114.934999 131.262477
L115.080142 131.068953
" />
<path d="M115.080142 131.068953
L115.297856 130.972191
" />
<path d="M115.297856 130.972191
L115.442999 130.972191
" />
<path d="M115.442999 130.972191
L115.660713 131.068953
" />
<path d="M115.660713 131.068953
L115.733285 131.165715
" />
<path d="M117.547571 133.004191
L117.547571 130.972191
" />
<path d="M117.547571 130.972191
L118.128142 130.972191
" />
<path d="M118.128142 130.972191
L118.273285 131.068953
" />
<path d="M118.273285 131.068953
L118.345856 131.165715
" />
<path d="M118.345856 131.165715
L118.418428 131.359239
" />
<path d="M118.418428 131.359239
L118.418428 131.649525
" />
<path d="M118.418428 131.649525
L118.345856 131.843049
" />
<path d="M118.345856 131.843049
L118.273285 131.939810
" />
<path d="M118.273285 131.939810
L118.128142 132.036572
" />
<path d="M118.128142 132.036572
L117.547571 132.036572
" />
<path d="M119.942428 133.004191
L119.434428 132.036572
" />
<path d="M119.071571 133.004191
L119.071571 130.972191
" />
<path d="M119.071571 130.972191
L119.652142 130.972191
" />
<path d="M119.652142 130.972191
L119.797285 131.068953
" />
<path d="M119.797285 131.068953
L119.869856 131.165715
" />
<path d="M119.869856 131.165715
L119.942428 131.359239
" />
<path d="M119.942428 131.359239
L119.942428 131.649525
" />
<path d="M119.942428 131.649525
L119.869856 131.843049
" />
<path d="M119.869856 131.843049
L119.797285 131.939810
" />
<path d="M119.797285 131.939810
L119.652142 132.036572
" />
<path d="M119.652142 132.036572
L119.071571 132.036572
" />
<path d="M120.885856 130.972191
L121.176142 130.972191
" />
<path d="M121.176142 130.972191
L121.321285 131.068953
" />
<path d="M121.321285 131.068953
L121.466428 131.262477
" />
<path d="M121.466428 131.262477
L121.538999 131.649525
" />
<path d="M121.538999 131.649525
L121.538999 132.326858
" />
<path d="M121.538999 132.326858
L121.466428 132.713906
" />
<path d="M121.466428 132.713906
L121.321285 132.907430
" />
<path d="M121.321285 132.907430
L121.176142 133.004191
" />
<path d="M121.176142 133.004191
L120.885856 133.004191
" />
<path d="M120.885856 133.004191
L120.740714 132.907430
" />
<path d="M120.740714 132.907430
L120.595571 132.713906
" />
<path d="M120.595571 132.713906
L120.522999 132.326858
" />
<path d="M120.522999 132.326858
L120.522999 131.649525
" />
<path d="M120.522999 131.649525
L120.595571 131.262477
" />
<path d="M120.595571 131.262477
L120.740714 131.068953
" />
<path d="M120.740714 131.068953
L120.885856 130.972191
" />
<path d="M122.990427 131.068953
L122.845285 130.972191
" />
<path d="M122.845285 130.972191
L122.627570 130.972191
" />
<path d="M122.627570 130.972191
L122.409856 131.068953
" />
<path d="M122.409856 131.068953
L122.264713 131.262477
" />
<path d="M122.264713 131.262477
L122.192142 131.456001
" />
<path d="M122.192142 131.456001
L122.119570 131.843049
" />
<path d="M122.119570 131.843049
L122.119570 132.133334
" />
<path d="M122.119570 132.133334
L122.192142 132.520382
" />
<path d="M122.192142 132.520382
L122.264713 132.713906
" />
<path d="M122.264713 132.713906
L122.409856 132.907430
" />
<path d="M122.409856 132.907430
L122.627570 133.004191
" />
<path d="M122.627570 133.004191
L122.772713 133.004191
" />
<path d="M122.772713 133.004191
L122.990427 132.907430
" />
<path d="M122.990427 132.907430
L123.062999 132.810668
" />
<path d="M123.062999 132.810668
L123.062999 132.133334
" />
<path d="M123.062999 132.133334
L122.772713 132.133334
" />
<path d="M124.586999 133.004191
L124.078999 132.036572
" />
<path d="M123.716142 133.004191
L123.716142 130.972191
" />
<path d="M123.716142 130.972191
L124.296713 130.972191
" />
<path d="M124.296713 130.972191
L124.441856 131.068953
" />
<path d="M124.441856 131.068953
L124.514427 131.165715
" />
<path d="M124.514427 131.165715
L124.586999 131.359239
" />
<path d="M124.586999 131.359239
L124.586999 131.649525
" />
<path d="M124.586999 131.649525
L124.514427 131.843049
" />
<path d="M124.514427 131.843049
L124.441856 131.939810
" />
<path d="M124.441856 131.939810
L124.296713 132.036572
" />
<path d="M124.296713 132.036572
L123.716142 132.036572
" />
<path d="M125.167570 132.423620
L125.893285 132.423620
" />
<path d="M125.022427 133.004191
L125.530427 130.972191
" />
<path d="M125.530427 130.972191
L126.038427 133.004191
" />
<path d="M126.546428 133.004191
L126.546428 130.972191
" />
<path d="M126.546428 130.972191
L127.054428 132.423620
" />
<path d="M127.054428 132.423620
L127.562428 130.972191
" />
<path d="M127.562428 130.972191
L127.562428 133.004191
" />
<path d="M128.288142 133.004191
L128.288142 130.972191
" />
<path d="M128.288142 130.972191
L128.796142 132.423620
" />
<path d="M128.796142 132.423620
L129.304142 130.972191
" />
<path d="M129.304142 130.972191
L129.304142 133.004191
" />
<path d="M130.029856 131.939810
L130.537856 131.939810
" />
<path d="M130.755570 133.004191
L130.029856 133.004191
" />
<path d="M130.029856 133.004191
L130.029856 130.972191
" />
<path d="M130.029856 130.972191
L130.755570 130.972191
" />
<path d="M132.279570 133.004191
L131.771570 132.036572
" />
<path d="M131.408713 133.004191
L131.408713 130.972191
" />
<path d="M131.408713 130.972191
L131.989284 130.972191
" />
<path d="M131.989284 130.972191
L132.134427 131.068953
" />
<path d="M132.134427 131.068953
L132.206998 131.165715
" />
<path d="M132.206998 131.165715
L132.279570 131.359239
" />
<path d="M132.279570 131.359239
L132.279570 131.649525
" />
<path d="M132.279570 131.649525
L132.206998 131.843049
" />
<path d="M132.206998 131.843049
L132.134427 131.939810
" />
<path d="M132.134427 131.939810
L131.989284 132.036572
" />
<path d="M131.989284 132.036572
L131.408713 132.036572
" />
<path d="M133.876141 130.972191
L134.384141 133.004191
" />
<path d="M134.384141 133.004191
L134.892141 130.972191
" />
<path d="M135.690427 130.972191
L135.835570 130.972191
" />
<path d="M135.835570 130.972191
L135.980713 131.068953
" />
<path d="M135.980713 131.068953
L136.053285 131.165715
" />
<path d="M136.053285 131.165715
L136.125856 131.359239
" />
<path d="M136.125856 131.359239
L136.198427 131.746287
" />
<path d="M136.198427 131.746287
L136.198427 132.230096
" />
<path d="M136.198427 132.230096
L136.125856 132.617144
" />
<path d="M136.125856 132.617144
L136.053285 132.810668
" />
<path d="M136.053285 132.810668
L135.980713 132.907430
" />
<path d="M135.980713 132.907430
L135.835570 133.004191
" />
<path d="M135.835570 133.004191
L135.690427 133.004191
" />
<path d="M135.690427 133.004191
L135.545285 132.907430
" />
<path d="M135.545285 132.907430
L135.472713 132.810668
" />
<path d="M135.472713 132.810668
L135.400142 132.617144
" />
<path d="M135.400142 132.617144
L135.327570 132.230096
" />
<path d="M135.327570 132.230096
L135.327570 131.746287
" />
<path d="M135.327570 131.746287
L135.400142 131.359239
" />
<path d="M135.400142 131.359239
L135.472713 131.165715
" />
<path d="M135.472713 131.165715
L135.545285 131.068953
" />
<path d="M135.545285 131.068953
L135.690427 130.972191
" />
<path d="M136.706428 130.972191
L137.649856 130.972191
" />
<path d="M137.649856 130.972191
L137.141856 131.746287
" />
<path d="M137.141856 131.746287
L137.359571 131.746287
" />
<path d="M137.359571 131.746287
L137.504714 131.843049
" />
<path d="M137.504714 131.843049
L137.577285 131.939810
" />
<path d="M137.577285 131.939810
L137.649856 132.133334
" />
<path d="M137.649856 132.133334
L137.649856 132.617144
" />
<path d="M137.649856 132.617144
L137.577285 132.810668
" />
<path d="M137.577285 132.810668
L137.504714 132.907430
" />
<path d="M137.504714 132.907430
L137.359571 133.004191
" />
<path d="M137.359571 133.004191
L136.924142 133.004191
" />
<path d="M136.924142 133.004191
L136.778999 132.907430
" />
<path d="M136.778999 132.907430
L136.706428 132.810668
" />
</g><text x="200.660000" y="108.966000"
textLength="7.721600" font-size="2.032000" lengthAdjust="spacingAndGlyphs"
text-anchor="middle" opacity="0" stroke-opacity="0">1=&gt;&gt;</text>
<g class="stroked-text"><desc>1=&gt;&gt;</desc>
<path d="M198.265142 108.874191
L197.394285 108.874191
" />
<path d="M197.829714 108.874191
L197.829714 106.842191
" />
<path d="M197.829714 106.842191
L197.684571 107.132477
" />
<path d="M197.684571 107.132477
L197.539428 107.326001
" />
<path d="M197.539428 107.326001
L197.394285 107.422763
" />
<path d="M198.918286 107.809810
L200.079429 107.809810
" />
<path d="M200.079429 108.390382
L198.918286 108.390382
" />
<path d="M200.805143 107.519525
L201.966286 108.100096
" />
<path d="M201.966286 108.100096
L200.805143 108.680668
" />
<path d="M202.692000 107.519525
L203.853143 108.100096
" />
<path d="M203.853143 108.100096
L202.692000 108.680668
" />
</g><text x="211.455000" y="133.731000"
textLength="14.906172" font-size="2.032000" lengthAdjust="spacingAndGlyphs"
text-anchor="middle" opacity="0" stroke-opacity="0">PIC 18 PINS</text>
<g class="stroked-text"><desc>PIC 18 PINS</desc>
<path d="M204.669571 133.639191
L204.669571 131.607191
" />
<path d="M204.669571 131.607191
L205.250142 131.607191
" />
<path d="M205.250142 131.607191
L205.395285 131.703953
" />
<path d="M205.395285 131.703953
L205.467856 131.800715
" />
<path d="M205.467856 131.800715
L205.540428 131.994239
" />
<path d="M205.540428 131.994239
L205.540428 132.284525
" />
<path d="M205.540428 132.284525
L205.467856 132.478049
" />
<path d="M205.467856 132.478049
L205.395285 132.574810
" />
<path d="M205.395285 132.574810
L205.250142 132.671572
" />
<path d="M205.250142 132.671572
L204.669571 132.671572
" />
<path d="M206.193571 133.639191
L206.193571 131.607191
" />
<path d="M207.790142 133.445668
L207.717570 133.542430
" />
<path d="M207.717570 133.542430
L207.499856 133.639191
" />
<path d="M207.499856 133.639191
L207.354713 133.639191
" />
<path d="M207.354713 133.639191
L207.136999 133.542430
" />
<path d="M207.136999 133.542430
L206.991856 133.348906
" />
<path d="M206.991856 133.348906
L206.919285 133.155382
" />
<path d="M206.919285 133.155382
L206.846713 132.768334
" />
<path d="M206.846713 132.768334
L206.846713 132.478049
" />
<path d="M206.846713 132.478049
L206.919285 132.091001
" />
<path d="M206.919285 132.091001
L206.991856 131.897477
" />
<path d="M206.991856 131.897477
L207.136999 131.703953
" />
<path d="M207.136999 131.703953
L207.354713 131.607191
" />
<path d="M207.354713 131.607191
L207.499856 131.607191
" />
<path d="M207.499856 131.607191
L207.717570 131.703953
" />
<path d="M207.717570 131.703953
L207.790142 131.800715
" />
<path d="M210.402713 133.639191
L209.531856 133.639191
" />
<path d="M209.967285 133.639191
L209.967285 131.607191
" />
<path d="M209.967285 131.607191
L209.822142 131.897477
" />
<path d="M209.822142 131.897477
L209.676999 132.091001
" />
<path d="M209.676999 132.091001
L209.531856 132.187763
" />
<path d="M211.273571 132.478049
L211.128428 132.381287
" />
<path d="M211.128428 132.381287
L211.055857 132.284525
" />
<path d="M211.055857 132.284525
L210.983285 132.091001
" />
<path d="M210.983285 132.091001
L210.983285 131.994239
" />
<path d="M210.983285 131.994239
L211.055857 131.800715
" />
<path d="M211.055857 131.800715
L211.128428 131.703953
" />
<path d="M211.128428 131.703953
L211.273571 131.607191
" />
<path d="M211.273571 131.607191
L211.563857 131.607191
" />
<path d="M211.563857 131.607191
L211.709000 131.703953
" />
<path d="M211.709000 131.703953
L211.781571 131.800715
" />
<path d="M211.781571 131.800715
L211.854142 131.994239
" />
<path d="M211.854142 131.994239
L211.854142 132.091001
" />
<path d="M211.854142 132.091001
L211.781571 132.284525
" />
<path d="M211.781571 132.284525
L211.709000 132.381287
" />
<path d="M211.709000 132.381287
L211.563857 132.478049
" />
<path d="M211.563857 132.478049
L211.273571 132.478049
" />
<path d="M211.273571 132.478049
L211.128428 132.574810
" />
<path d="M211.128428 132.574810
L211.055857 132.671572
" />
<path d="M211.055857 132.671572
L210.983285 132.865096
" />
<path d="M210.983285 132.865096
L210.983285 133.252144
" />
<path d="M210.983285 133.252144
L211.055857 133.445668
" />
<path d="M211.055857 133.445668
L211.128428 133.542430
" />
<path d="M211.128428 133.542430
L211.273571 133.639191
" />
<path d="M211.273571 133.639191
L211.563857 133.639191
" />
<path d="M211.563857 133.639191
L211.709000 133.542430
" />
<path d="M211.709000 133.542430
L211.781571 133.445668
" />
<path d="M211.781571 133.445668
L211.854142 133.252144
" />
<path d="M211.854142 133.252144
L211.854142 132.865096
" />
<path d="M211.854142 132.865096
L211.781571 132.671572
" />
<path d="M211.781571 132.671572
L211.709000 132.574810
" />
<path d="M211.709000 132.574810
L211.563857 132.478049
" />
<path d="M213.668429 133.639191
L213.668429 131.607191
" />
<path d="M213.668429 131.607191
L214.249000 131.607191
" />
<path d="M214.249000 131.607191
L214.394143 131.703953
" />
<path d="M214.394143 131.703953
L214.466714 131.800715
" />
<path d="M214.466714 131.800715
L214.539286 131.994239
" />
<path d="M214.539286 131.994239
L214.539286 132.284525
" />
<path d="M214.539286 132.284525
L214.466714 132.478049
" />
<path d="M214.466714 132.478049
L214.394143 132.574810
" />
<path d="M214.394143 132.574810
L214.249000 132.671572
" />
<path d="M214.249000 132.671572
L213.668429 132.671572
" />
<path d="M215.192429 133.639191
L215.192429 131.607191
" />
<path d="M215.918143 133.639191
L215.918143 131.607191
" />
<path d="M215.918143 131.607191
L216.789000 133.639191
" />
<path d="M216.789000 133.639191
L216.789000 131.607191
" />
<path d="M217.442142 133.542430
L217.659857 133.639191
" />
<path d="M217.659857 133.639191
L218.022714 133.639191
" />
<path d="M218.022714 133.639191
L218.167857 133.542430
" />
<path d="M218.167857 133.542430
L218.240428 133.445668
" />
<path d="M218.240428 133.445668
L218.312999 133.252144
" />
<path d="M218.312999 133.252144
L218.312999 133.058620
" />
<path d="M218.312999 133.058620
L218.240428 132.865096
" />
<path d="M218.240428 132.865096
L218.167857 132.768334
" />
<path d="M218.167857 132.768334
L218.022714 132.671572
" />
<path d="M218.022714 132.671572
L217.732428 132.574810
" />
<path d="M217.732428 132.574810
L217.587285 132.478049
" />
<path d="M217.587285 132.478049
L217.514714 132.381287
" />
<path d="M217.514714 132.381287
L217.442142 132.187763
" />
<path d="M217.442142 132.187763
L217.442142 131.994239
" />
<path d="M217.442142 131.994239
L217.514714 131.800715
" />
<path d="M217.514714 131.800715
L217.587285 131.703953
" />
<path d="M217.587285 131.703953
L217.732428 131.607191
" />
<path d="M217.732428 131.607191
L218.095285 131.607191
" />
<path d="M218.095285 131.607191
L218.312999 131.703953
" />
</g><text x="166.370000" y="115.316000"
textLength="11.858171" font-size="2.032000" lengthAdjust="spacingAndGlyphs"
text-anchor="middle" opacity="0" stroke-opacity="0">I2C PROM</text>
<g class="stroked-text"><desc>I2C PROM</desc>
<path d="M161.108572 115.224191
L161.108572 113.192191
" />
<path d="M161.761714 113.385715
L161.834286 113.288953
" />
<path d="M161.834286 113.288953
L161.979429 113.192191
" />
<path d="M161.979429 113.192191
L162.342286 113.192191
" />
<path d="M162.342286 113.192191
L162.487429 113.288953
" />
<path d="M162.487429 113.288953
L162.560000 113.385715
" />
<path d="M162.560000 113.385715
L162.632571 113.579239
" />
<path d="M162.632571 113.579239
L162.632571 113.772763
" />
<path d="M162.632571 113.772763
L162.560000 114.063049
" />
<path d="M162.560000 114.063049
L161.689143 115.224191
" />
<path d="M161.689143 115.224191
L162.632571 115.224191
" />
<path d="M164.156572 115.030668
L164.084000 115.127430
" />
<path d="M164.084000 115.127430
L163.866286 115.224191
" />
<path d="M163.866286 115.224191
L163.721143 115.224191
" />
<path d="M163.721143 115.224191
L163.503429 115.127430
" />
<path d="M163.503429 115.127430
L163.358286 114.933906
" />
<path d="M163.358286 114.933906
L163.285715 114.740382
" />
<path d="M163.285715 114.740382
L163.213143 114.353334
" />
<path d="M163.213143 114.353334
L163.213143 114.063049
" />
<path d="M163.213143 114.063049
L163.285715 113.676001
" />
<path d="M163.285715 113.676001
L163.358286 113.482477
" />
<path d="M163.358286 113.482477
L163.503429 113.288953
" />
<path d="M163.503429 113.288953
L163.721143 113.192191
" />
<path d="M163.721143 113.192191
L163.866286 113.192191
" />
<path d="M163.866286 113.192191
L164.084000 113.288953
" />
<path d="M164.084000 113.288953
L164.156572 113.385715
" />
<path d="M165.970858 115.224191
L165.970858 113.192191
" />
<path d="M165.970858 113.192191
L166.551429 113.192191
" />
<path d="M166.551429 113.192191
L166.696572 113.288953
" />
<path d="M166.696572 113.288953
L166.769143 113.385715
" />
<path d="M166.769143 113.385715
L166.841715 113.579239
" />
<path d="M166.841715 113.579239
L166.841715 113.869525
" />
<path d="M166.841715 113.869525
L166.769143 114.063049
" />
<path d="M166.769143 114.063049
L166.696572 114.159810
" />
<path d="M166.696572 114.159810
L166.551429 114.256572
" />
<path d="M166.551429 114.256572
L165.970858 114.256572
" />
<path d="M168.365715 115.224191
L167.857715 114.256572
" />
<path d="M167.494858 115.224191
L167.494858 113.192191
" />
<path d="M167.494858 113.192191
L168.075429 113.192191
" />
<path d="M168.075429 113.192191
L168.220572 113.288953
" />
<path d="M168.220572 113.288953
L168.293143 113.385715
" />
<path d="M168.293143 113.385715
L168.365715 113.579239
" />
<path d="M168.365715 113.579239
L168.365715 113.869525
" />
<path d="M168.365715 113.869525
L168.293143 114.063049
" />
<path d="M168.293143 114.063049
L168.220572 114.159810
" />
<path d="M168.220572 114.159810
L168.075429 114.256572
" />
<path d="M168.075429 114.256572
L167.494858 114.256572
" />
<path d="M169.309143 113.192191
L169.599429 113.192191
" />
<path d="M169.599429 113.192191
L169.744572 113.288953
" />
<path d="M169.744572 113.288953
L169.889715 113.482477
" />
<path d="M169.889715 113.482477
L169.962286 113.869525
" />
<path d="M169.962286 113.869525
L169.962286 114.546858
" />
<path d="M169.962286 114.546858
L169.889715 114.933906
" />
<path d="M169.889715 114.933906
L169.744572 115.127430
" />
<path d="M169.744572 115.127430
L169.599429 115.224191
" />
<path d="M169.599429 115.224191
L169.309143 115.224191
" />
<path d="M169.309143 115.224191
L169.164001 115.127430
" />
<path d="M169.164001 115.127430
L169.018858 114.933906
" />
<path d="M169.018858 114.933906
L168.946286 114.546858
" />
<path d="M168.946286 114.546858
L168.946286 113.869525
" />
<path d="M168.946286 113.869525
L169.018858 113.482477
" />
<path d="M169.018858 113.482477
L169.164001 113.288953
" />
<path d="M169.164001 113.288953
L169.309143 113.192191
" />
<path d="M170.615429 115.224191
L170.615429 113.192191
" />
<path d="M170.615429 113.192191
L171.123429 114.643620
" />
<path d="M171.123429 114.643620
L171.631429 113.192191
" />
<path d="M171.631429 113.192191
L171.631429 115.224191
" />
</g><text x="163.195000" y="81.661000"
textLength="9.318171" font-size="2.032000" lengthAdjust="spacingAndGlyphs"
text-anchor="middle" opacity="0" stroke-opacity="0">VPP ON</text>
<g class="stroked-text"><desc>VPP ON</desc>
<path d="M158.985857 79.537191
L159.493857 81.569191
" />
<path d="M159.493857 81.569191
L160.001857 79.537191
" />
<path d="M160.509858 81.569191
L160.509858 79.537191
" />
<path d="M160.509858 79.537191
L161.090429 79.537191
" />
<path d="M161.090429 79.537191
L161.235572 79.633953
" />
<path d="M161.235572 79.633953
L161.308143 79.730715
" />
<path d="M161.308143 79.730715
L161.380715 79.924239
" />
<path d="M161.380715 79.924239
L161.380715 80.214525
" />
<path d="M161.380715 80.214525
L161.308143 80.408049
" />
<path d="M161.308143 80.408049
L161.235572 80.504810
" />
<path d="M161.235572 80.504810
L161.090429 80.601572
" />
<path d="M161.090429 80.601572
L160.509858 80.601572
" />
<path d="M162.033858 81.569191
L162.033858 79.537191
" />
<path d="M162.033858 79.537191
L162.614429 79.537191
" />
<path d="M162.614429 79.537191
L162.759572 79.633953
" />
<path d="M162.759572 79.633953
L162.832143 79.730715
" />
<path d="M162.832143 79.730715
L162.904715 79.924239
" />
<path d="M162.904715 79.924239
L162.904715 80.214525
" />
<path d="M162.904715 80.214525
L162.832143 80.408049
" />
<path d="M162.832143 80.408049
L162.759572 80.504810
" />
<path d="M162.759572 80.504810
L162.614429 80.601572
" />
<path d="M162.614429 80.601572
L162.033858 80.601572
" />
<path d="M165.009286 79.537191
L165.299572 79.537191
" />
<path d="M165.299572 79.537191
L165.444715 79.633953
" />
<path d="M165.444715 79.633953
L165.589858 79.827477
" />
<path d="M165.589858 79.827477
L165.662429 80.214525
" />
<path d="M165.662429 80.214525
L165.662429 80.891858
" />
<path d="M165.662429 80.891858
L165.589858 81.278906
" />
<path d="M165.589858 81.278906
L165.444715 81.472430
" />
<path d="M165.444715 81.472430
L165.299572 81.569191
" />
<path d="M165.299572 81.569191
L165.009286 81.569191
" />
<path d="M165.009286 81.569191
L164.864144 81.472430
" />
<path d="M164.864144 81.472430
L164.719001 81.278906
" />
<path d="M164.719001 81.278906
L164.646429 80.891858
" />
<path d="M164.646429 80.891858
L164.646429 80.214525
" />
<path d="M164.646429 80.214525
L164.719001 79.827477
" />
<path d="M164.719001 79.827477
L164.864144 79.633953
" />
<path d="M164.864144 79.633953
L165.009286 79.537191
" />
<path d="M166.315572 81.569191
L166.315572 79.537191
" />
<path d="M166.315572 79.537191
L167.186429 81.569191
" />
<path d="M167.186429 81.569191
L167.186429 79.537191
" />
</g><text x="171.450000" y="110.236000"
textLength="7.721600" font-size="2.032000" lengthAdjust="spacingAndGlyphs"
text-anchor="middle" opacity="0" stroke-opacity="0">1=&gt;&gt;</text>
<g class="stroked-text"><desc>1=&gt;&gt;</desc>
<path d="M169.055142 110.144191
L168.184285 110.144191
" />
<path d="M168.619714 110.144191
L168.619714 108.112191
" />
<path d="M168.619714 108.112191
L168.474571 108.402477
" />
<path d="M168.474571 108.402477
L168.329428 108.596001
" />
<path d="M168.329428 108.596001
L168.184285 108.692763
" />
<path d="M169.708286 109.079810
L170.869429 109.079810
" />
<path d="M170.869429 109.660382
L169.708286 109.660382
" />
<path d="M171.595143 108.789525
L172.756286 109.370096
" />
<path d="M172.756286 109.370096
L171.595143 109.950668
" />
<path d="M173.482000 108.789525
L174.643143 109.370096
" />
<path d="M174.643143 109.370096
L173.482000 109.950668
" />
</g><text x="123.190000" y="96.266000"
textLength="14.180459" font-size="2.032000" lengthAdjust="spacingAndGlyphs"
text-anchor="middle" opacity="0" stroke-opacity="0">13V ADJUST</text>
<g class="stroked-text"><desc>13V ADJUST</desc>
<path d="M117.565713 96.174191
L116.694856 96.174191
" />
<path d="M117.130285 96.174191
L117.130285 94.142191
" />
<path d="M117.130285 94.142191
L116.985142 94.432477
" />
<path d="M116.985142 94.432477
L116.839999 94.626001
" />
<path d="M116.839999 94.626001
L116.694856 94.722763
" />
<path d="M118.073714 94.142191
L119.017142 94.142191
" />
<path d="M119.017142 94.142191
L118.509142 94.916287
" />
<path d="M118.509142 94.916287
L118.726857 94.916287
" />
<path d="M118.726857 94.916287
L118.872000 95.013049
" />
<path d="M118.872000 95.013049
L118.944571 95.109810
" />
<path d="M118.944571 95.109810
L119.017142 95.303334
" />
<path d="M119.017142 95.303334
L119.017142 95.787144
" />
<path d="M119.017142 95.787144
L118.944571 95.980668
" />
<path d="M118.944571 95.980668
L118.872000 96.077430
" />
<path d="M118.872000 96.077430
L118.726857 96.174191
" />
<path d="M118.726857 96.174191
L118.291428 96.174191
" />
<path d="M118.291428 96.174191
L118.146285 96.077430
" />
<path d="M118.146285 96.077430
L118.073714 95.980668
" />
<path d="M119.452571 94.142191
L119.960571 96.174191
" />
<path d="M119.960571 96.174191
L120.468571 94.142191
" />
<path d="M122.065143 95.593620
L122.790858 95.593620
" />
<path d="M121.920000 96.174191
L122.428000 94.142191
" />
<path d="M122.428000 94.142191
L122.936000 96.174191
" />
<path d="M123.444001 96.174191
L123.444001 94.142191
" />
<path d="M123.444001 94.142191
L123.806858 94.142191
" />
<path d="M123.806858 94.142191
L124.024572 94.238953
" />
<path d="M124.024572 94.238953
L124.169715 94.432477
" />
<path d="M124.169715 94.432477
L124.242286 94.626001
" />
<path d="M124.242286 94.626001
L124.314858 95.013049
" />
<path d="M124.314858 95.013049
L124.314858 95.303334
" />
<path d="M124.314858 95.303334
L124.242286 95.690382
" />
<path d="M124.242286 95.690382
L124.169715 95.883906
" />
<path d="M124.169715 95.883906
L124.024572 96.077430
" />
<path d="M124.024572 96.077430
L123.806858 96.174191
" />
<path d="M123.806858 96.174191
L123.444001 96.174191
" />
<path d="M125.403429 94.142191
L125.403429 95.593620
" />
<path d="M125.403429 95.593620
L125.330858 95.883906
" />
<path d="M125.330858 95.883906
L125.185715 96.077430
" />
<path d="M125.185715 96.077430
L124.968001 96.174191
" />
<path d="M124.968001 96.174191
L124.822858 96.174191
" />
<path d="M126.129144 94.142191
L126.129144 95.787144
" />
<path d="M126.129144 95.787144
L126.201715 95.980668
" />
<path d="M126.201715 95.980668
L126.274287 96.077430
" />
<path d="M126.274287 96.077430
L126.419429 96.174191
" />
<path d="M126.419429 96.174191
L126.709715 96.174191
" />
<path d="M126.709715 96.174191
L126.854858 96.077430
" />
<path d="M126.854858 96.077430
L126.927429 95.980668
" />
<path d="M126.927429 95.980668
L127.000001 95.787144
" />
<path d="M127.000001 95.787144
L127.000001 94.142191
" />
<path d="M127.653143 96.077430
L127.870858 96.174191
" />
<path d="M127.870858 96.174191
L128.233715 96.174191
" />
<path d="M128.233715 96.174191
L128.378858 96.077430
" />
<path d="M128.378858 96.077430
L128.451429 95.980668
" />
<path d="M128.451429 95.980668
L128.524000 95.787144
" />
<path d="M128.524000 95.787144
L128.524000 95.593620
" />
<path d="M128.524000 95.593620
L128.451429 95.400096
" />
<path d="M128.451429 95.400096
L128.378858 95.303334
" />
<path d="M128.378858 95.303334
L128.233715 95.206572
" />
<path d="M128.233715 95.206572
L127.943429 95.109810
" />
<path d="M127.943429 95.109810
L127.798286 95.013049
" />
<path d="M127.798286 95.013049
L127.725715 94.916287
" />
<path d="M127.725715 94.916287
L127.653143 94.722763
" />
<path d="M127.653143 94.722763
L127.653143 94.529239
" />
<path d="M127.653143 94.529239
L127.725715 94.335715
" />
<path d="M127.725715 94.335715
L127.798286 94.238953
" />
<path d="M127.798286 94.238953
L127.943429 94.142191
" />
<path d="M127.943429 94.142191
L128.306286 94.142191
" />
<path d="M128.306286 94.142191
L128.524000 94.238953
" />
<path d="M128.959429 94.142191
L129.830287 94.142191
" />
<path d="M129.394858 96.174191
L129.394858 94.142191
" />
</g><text x="183.515000" y="133.096000"
textLength="13.454743" font-size="2.032000" lengthAdjust="spacingAndGlyphs"
text-anchor="middle" opacity="0" stroke-opacity="0">PIC 8 PINS</text>
<g class="stroked-text"><desc>PIC 8 PINS</desc>
<path d="M177.455286 133.004191
L177.455286 130.972191
" />
<path d="M177.455286 130.972191
L178.035857 130.972191
" />
<path d="M178.035857 130.972191
L178.181000 131.068953
" />
<path d="M178.181000 131.068953
L178.253571 131.165715
" />
<path d="M178.253571 131.165715
L178.326143 131.359239
" />
<path d="M178.326143 131.359239
L178.326143 131.649525
" />
<path d="M178.326143 131.649525
L178.253571 131.843049
" />
<path d="M178.253571 131.843049
L178.181000 131.939810
" />
<path d="M178.181000 131.939810
L178.035857 132.036572
" />
<path d="M178.035857 132.036572
L177.455286 132.036572
" />
<path d="M178.979286 133.004191
L178.979286 130.972191
" />
<path d="M180.575857 132.810668
L180.503285 132.907430
" />
<path d="M180.503285 132.907430
L180.285571 133.004191
" />
<path d="M180.285571 133.004191
L180.140428 133.004191
" />
<path d="M180.140428 133.004191
L179.922714 132.907430
" />
<path d="M179.922714 132.907430
L179.777571 132.713906
" />
<path d="M179.777571 132.713906
L179.705000 132.520382
" />
<path d="M179.705000 132.520382
L179.632428 132.133334
" />
<path d="M179.632428 132.133334
L179.632428 131.843049
" />
<path d="M179.632428 131.843049
L179.705000 131.456001
" />
<path d="M179.705000 131.456001
L179.777571 131.262477
" />
<path d="M179.777571 131.262477
L179.922714 131.068953
" />
<path d="M179.922714 131.068953
L180.140428 130.972191
" />
<path d="M180.140428 130.972191
L180.285571 130.972191
" />
<path d="M180.285571 130.972191
L180.503285 131.068953
" />
<path d="M180.503285 131.068953
L180.575857 131.165715
" />
<path d="M182.607857 131.843049
L182.462714 131.746287
" />
<path d="M182.462714 131.746287
L182.390143 131.649525
" />
<path d="M182.390143 131.649525
L182.317571 131.456001
" />
<path d="M182.317571 131.456001
L182.317571 131.359239
" />
<path d="M182.317571 131.359239
L182.390143 131.165715
" />
<path d="M182.390143 131.165715
L182.462714 131.068953
" />
<path d="M182.462714 131.068953
L182.607857 130.972191
" />
<path d="M182.607857 130.972191
L182.898143 130.972191
" />
<path d="M182.898143 130.972191
L183.043286 131.068953
" />
<path d="M183.043286 131.068953
L183.115857 131.165715
" />
<path d="M183.115857 131.165715
L183.188428 131.359239
" />
<path d="M183.188428 131.359239
L183.188428 131.456001
" />
<path d="M183.188428 131.456001
L183.115857 131.649525
" />
<path d="M183.115857 131.649525
L183.043286 131.746287
" />
<path d="M183.043286 131.746287
L182.898143 131.843049
" />
<path d="M182.898143 131.843049
L182.607857 131.843049
" />
<path d="M182.607857 131.843049
L182.462714 131.939810
" />
<path d="M182.462714 131.939810
L182.390143 132.036572
" />
<path d="M182.390143 132.036572
L182.317571 132.230096
" />
<path d="M182.317571 132.230096
L182.317571 132.617144
" />
<path d="M182.317571 132.617144
L182.390143 132.810668
" />
<path d="M182.390143 132.810668
L182.462714 132.907430
" />
<path d="M182.462714 132.907430
L182.607857 133.004191
" />
<path d="M182.607857 133.004191
L182.898143 133.004191
" />
<path d="M182.898143 133.004191
L183.043286 132.907430
" />
<path d="M183.043286 132.907430
L183.115857 132.810668
" />
<path d="M183.115857 132.810668
L183.188428 132.617144
" />
<path d="M183.188428 132.617144
L183.188428 132.230096
" />
<path d="M183.188428 132.230096
L183.115857 132.036572
" />
<path d="M183.115857 132.036572
L183.043286 131.939810
" />
<path d="M183.043286 131.939810
L182.898143 131.843049
" />
<path d="M185.002715 133.004191
L185.002715 130.972191
" />
<path d="M185.002715 130.972191
L185.583286 130.972191
" />
<path d="M185.583286 130.972191
L185.728429 131.068953
" />
<path d="M185.728429 131.068953
L185.801000 131.165715
" />
<path d="M185.801000 131.165715
L185.873572 131.359239
" />
<path d="M185.873572 131.359239
L185.873572 131.649525
" />
<path d="M185.873572 131.649525
L185.801000 131.843049
" />
<path d="M185.801000 131.843049
L185.728429 131.939810
" />
<path d="M185.728429 131.939810
L185.583286 132.036572
" />
<path d="M185.583286 132.036572
L185.002715 132.036572
" />
<path d="M186.526715 133.004191
L186.526715 130.972191
" />
<path d="M187.252429 133.004191
L187.252429 130.972191
" />
<path d="M187.252429 130.972191
L188.123286 133.004191
" />
<path d="M188.123286 133.004191
L188.123286 130.972191
" />
<path d="M188.776428 132.907430
L188.994143 133.004191
" />
<path d="M188.994143 133.004191
L189.357000 133.004191
" />
<path d="M189.357000 133.004191
L189.502143 132.907430
" />
<path d="M189.502143 132.907430
L189.574714 132.810668
" />
<path d="M189.574714 132.810668
L189.647285 132.617144
" />
<path d="M189.647285 132.617144
L189.647285 132.423620
" />
<path d="M189.647285 132.423620
L189.574714 132.230096
" />
<path d="M189.574714 132.230096
L189.502143 132.133334
" />
<path d="M189.502143 132.133334
L189.357000 132.036572
" />
<path d="M189.357000 132.036572
L189.066714 131.939810
" />
<path d="M189.066714 131.939810
L188.921571 131.843049
" />
<path d="M188.921571 131.843049
L188.849000 131.746287
" />
<path d="M188.849000 131.746287
L188.776428 131.552763
" />
<path d="M188.776428 131.552763
L188.776428 131.359239
" />
<path d="M188.776428 131.359239
L188.849000 131.165715
" />
<path d="M188.849000 131.165715
L188.921571 131.068953
" />
<path d="M188.921571 131.068953
L189.066714 130.972191
" />
<path d="M189.066714 130.972191
L189.429571 130.972191
" />
<path d="M189.429571 130.972191
L189.647285 131.068953
" />
</g><text x="212.725000" y="46.101000"
textLength="14.906172" font-size="2.032000" lengthAdjust="spacingAndGlyphs"
text-anchor="middle" opacity="0" stroke-opacity="0">PIC 28 PINS</text>
<g class="stroked-text"><desc>PIC 28 PINS</desc>
<path d="M205.939571 46.009191
L205.939571 43.977191
" />
<path d="M205.939571 43.977191
L206.520142 43.977191
" />
<path d="M206.520142 43.977191
L206.665285 44.073953
" />
<path d="M206.665285 44.073953
L206.737856 44.170715
" />
<path d="M206.737856 44.170715
L206.810428 44.364239
" />
<path d="M206.810428 44.364239
L206.810428 44.654525
" />
<path d="M206.810428 44.654525
L206.737856 44.848049
" />
<path d="M206.737856 44.848049
L206.665285 44.944810
" />
<path d="M206.665285 44.944810
L206.520142 45.041572
" />
<path d="M206.520142 45.041572
L205.939571 45.041572
" />
<path d="M207.463571 46.009191
L207.463571 43.977191
" />
<path d="M209.060142 45.815668
L208.987570 45.912430
" />
<path d="M208.987570 45.912430
L208.769856 46.009191
" />
<path d="M208.769856 46.009191
L208.624713 46.009191
" />
<path d="M208.624713 46.009191
L208.406999 45.912430
" />
<path d="M208.406999 45.912430
L208.261856 45.718906
" />
<path d="M208.261856 45.718906
L208.189285 45.525382
" />
<path d="M208.189285 45.525382
L208.116713 45.138334
" />
<path d="M208.116713 45.138334
L208.116713 44.848049
" />
<path d="M208.116713 44.848049
L208.189285 44.461001
" />
<path d="M208.189285 44.461001
L208.261856 44.267477
" />
<path d="M208.261856 44.267477
L208.406999 44.073953
" />
<path d="M208.406999 44.073953
L208.624713 43.977191
" />
<path d="M208.624713 43.977191
L208.769856 43.977191
" />
<path d="M208.769856 43.977191
L208.987570 44.073953
" />
<path d="M208.987570 44.073953
L209.060142 44.170715
" />
<path d="M210.801856 44.170715
L210.874428 44.073953
" />
<path d="M210.874428 44.073953
L211.019571 43.977191
" />
<path d="M211.019571 43.977191
L211.382428 43.977191
" />
<path d="M211.382428 43.977191
L211.527571 44.073953
" />
<path d="M211.527571 44.073953
L211.600142 44.170715
" />
<path d="M211.600142 44.170715
L211.672713 44.364239
" />
<path d="M211.672713 44.364239
L211.672713 44.557763
" />
<path d="M211.672713 44.557763
L211.600142 44.848049
" />
<path d="M211.600142 44.848049
L210.729285 46.009191
" />
<path d="M210.729285 46.009191
L211.672713 46.009191
" />
<path d="M212.543571 44.848049
L212.398428 44.751287
" />
<path d="M212.398428 44.751287
L212.325857 44.654525
" />
<path d="M212.325857 44.654525
L212.253285 44.461001
" />
<path d="M212.253285 44.461001
L212.253285 44.364239
" />
<path d="M212.253285 44.364239
L212.325857 44.170715
" />
<path d="M212.325857 44.170715
L212.398428 44.073953
" />
<path d="M212.398428 44.073953
L212.543571 43.977191
" />
<path d="M212.543571 43.977191
L212.833857 43.977191
" />
<path d="M212.833857 43.977191
L212.979000 44.073953
" />
<path d="M212.979000 44.073953
L213.051571 44.170715
" />
<path d="M213.051571 44.170715
L213.124142 44.364239
" />
<path d="M213.124142 44.364239
L213.124142 44.461001
" />
<path d="M213.124142 44.461001
L213.051571 44.654525
" />
<path d="M213.051571 44.654525
L212.979000 44.751287
" />
<path d="M212.979000 44.751287
L212.833857 44.848049
" />
<path d="M212.833857 44.848049
L212.543571 44.848049
" />
<path d="M212.543571 44.848049
L212.398428 44.944810
" />
<path d="M212.398428 44.944810
L212.325857 45.041572
" />
<path d="M212.325857 45.041572
L212.253285 45.235096
" />
<path d="M212.253285 45.235096
L212.253285 45.622144
" />
<path d="M212.253285 45.622144
L212.325857 45.815668
" />
<path d="M212.325857 45.815668
L212.398428 45.912430
" />
<path d="M212.398428 45.912430
L212.543571 46.009191
" />
<path d="M212.543571 46.009191
L212.833857 46.009191
" />
<path d="M212.833857 46.009191
L212.979000 45.912430
" />
<path d="M212.979000 45.912430
L213.051571 45.815668
" />
<path d="M213.051571 45.815668
L213.124142 45.622144
" />
<path d="M213.124142 45.622144
L213.124142 45.235096
" />
<path d="M213.124142 45.235096
L213.051571 45.041572
" />
<path d="M213.051571 45.041572
L212.979000 44.944810
" />
<path d="M212.979000 44.944810
L212.833857 44.848049
" />
<path d="M214.938429 46.009191
L214.938429 43.977191
" />
<path d="M214.938429 43.977191
L215.519000 43.977191
" />
<path d="M215.519000 43.977191
L215.664143 44.073953
" />
<path d="M215.664143 44.073953
L215.736714 44.170715
" />
<path d="M215.736714 44.170715
L215.809286 44.364239
" />
<path d="M215.809286 44.364239
L215.809286 44.654525
" />
<path d="M215.809286 44.654525
L215.736714 44.848049
" />
<path d="M215.736714 44.848049
L215.664143 44.944810
" />
<path d="M215.664143 44.944810
L215.519000 45.041572
" />
<path d="M215.519000 45.041572
L214.938429 45.041572
" />
<path d="M216.462429 46.009191
L216.462429 43.977191
" />
<path d="M217.188143 46.009191
L217.188143 43.977191
" />
<path d="M217.188143 43.977191
L218.059000 46.009191
" />
<path d="M218.059000 46.009191
L218.059000 43.977191
" />
<path d="M218.712142 45.912430
L218.929857 46.009191
" />
<path d="M218.929857 46.009191
L219.292714 46.009191
" />
<path d="M219.292714 46.009191
L219.437857 45.912430
" />
<path d="M219.437857 45.912430
L219.510428 45.815668
" />
<path d="M219.510428 45.815668
L219.582999 45.622144
" />
<path d="M219.582999 45.622144
L219.582999 45.428620
" />
<path d="M219.582999 45.428620
L219.510428 45.235096
" />
<path d="M219.510428 45.235096
L219.437857 45.138334
" />
<path d="M219.437857 45.138334
L219.292714 45.041572
" />
<path d="M219.292714 45.041572
L219.002428 44.944810
" />
<path d="M219.002428 44.944810
L218.857285 44.848049
" />
<path d="M218.857285 44.848049
L218.784714 44.751287
" />
<path d="M218.784714 44.751287
L218.712142 44.557763
" />
<path d="M218.712142 44.557763
L218.712142 44.364239
" />
<path d="M218.712142 44.364239
L218.784714 44.170715
" />
<path d="M218.784714 44.170715
L218.857285 44.073953
" />
<path d="M218.857285 44.073953
L219.002428 43.977191
" />
<path d="M219.002428 43.977191
L219.365285 43.977191
" />
<path d="M219.365285 43.977191
L219.582999 44.073953
" />
</g><text x="171.450000" y="121.666000"
textLength="7.721600" font-size="2.032000" lengthAdjust="spacingAndGlyphs"
text-anchor="middle" opacity="0" stroke-opacity="0">1=&gt;&gt;</text>
<g class="stroked-text"><desc>1=&gt;&gt;</desc>
<path d="M169.055142 121.574191
L168.184285 121.574191
" />
<path d="M168.619714 121.574191
L168.619714 119.542191
" />
<path d="M168.619714 119.542191
L168.474571 119.832477
" />
<path d="M168.474571 119.832477
L168.329428 120.026001
" />
<path d="M168.329428 120.026001
L168.184285 120.122763
" />
<path d="M169.708286 120.509810
L170.869429 120.509810
" />
<path d="M170.869429 121.090382
L169.708286 121.090382
" />
<path d="M171.595143 120.219525
L172.756286 120.800096
" />
<path d="M172.756286 120.800096
L171.595143 121.380668
" />
<path d="M173.482000 120.219525
L174.643143 120.800096
" />
<path d="M174.643143 120.800096
L173.482000 121.380668
" />
</g><text x="182.245000" y="46.101000"
textLength="14.906172" font-size="2.032000" lengthAdjust="spacingAndGlyphs"
text-anchor="middle" opacity="0" stroke-opacity="0">PIC 40 PINS</text>
<g class="stroked-text"><desc>PIC 40 PINS</desc>
<path d="M175.459571 46.009191
L175.459571 43.977191
" />
<path d="M175.459571 43.977191
L176.040142 43.977191
" />
<path d="M176.040142 43.977191
L176.185285 44.073953
" />
<path d="M176.185285 44.073953
L176.257856 44.170715
" />
<path d="M176.257856 44.170715
L176.330428 44.364239
" />
<path d="M176.330428 44.364239
L176.330428 44.654525
" />
<path d="M176.330428 44.654525
L176.257856 44.848049
" />
<path d="M176.257856 44.848049
L176.185285 44.944810
" />
<path d="M176.185285 44.944810
L176.040142 45.041572
" />
<path d="M176.040142 45.041572
L175.459571 45.041572
" />
<path d="M176.983571 46.009191
L176.983571 43.977191
" />
<path d="M178.580142 45.815668
L178.507570 45.912430
" />
<path d="M178.507570 45.912430
L178.289856 46.009191
" />
<path d="M178.289856 46.009191
L178.144713 46.009191
" />
<path d="M178.144713 46.009191
L177.926999 45.912430
" />
<path d="M177.926999 45.912430
L177.781856 45.718906
" />
<path d="M177.781856 45.718906
L177.709285 45.525382
" />
<path d="M177.709285 45.525382
L177.636713 45.138334
" />
<path d="M177.636713 45.138334
L177.636713 44.848049
" />
<path d="M177.636713 44.848049
L177.709285 44.461001
" />
<path d="M177.709285 44.461001
L177.781856 44.267477
" />
<path d="M177.781856 44.267477
L177.926999 44.073953
" />
<path d="M177.926999 44.073953
L178.144713 43.977191
" />
<path d="M178.144713 43.977191
L178.289856 43.977191
" />
<path d="M178.289856 43.977191
L178.507570 44.073953
" />
<path d="M178.507570 44.073953
L178.580142 44.170715
" />
<path d="M181.047571 44.654525
L181.047571 46.009191
" />
<path d="M180.684713 43.880430
L180.321856 45.331858
" />
<path d="M180.321856 45.331858
L181.265285 45.331858
" />
<path d="M182.136142 43.977191
L182.281285 43.977191
" />
<path d="M182.281285 43.977191
L182.426428 44.073953
" />
<path d="M182.426428 44.073953
L182.499000 44.170715
" />
<path d="M182.499000 44.170715
L182.571571 44.364239
" />
<path d="M182.571571 44.364239
L182.644142 44.751287
" />
<path d="M182.644142 44.751287
L182.644142 45.235096
" />
<path d="M182.644142 45.235096
L182.571571 45.622144
" />
<path d="M182.571571 45.622144
L182.499000 45.815668
" />
<path d="M182.499000 45.815668
L182.426428 45.912430
" />
<path d="M182.426428 45.912430
L182.281285 46.009191
" />
<path d="M182.281285 46.009191
L182.136142 46.009191
" />
<path d="M182.136142 46.009191
L181.991000 45.912430
" />
<path d="M181.991000 45.912430
L181.918428 45.815668
" />
<path d="M181.918428 45.815668
L181.845857 45.622144
" />
<path d="M181.845857 45.622144
L181.773285 45.235096
" />
<path d="M181.773285 45.235096
L181.773285 44.751287
" />
<path d="M181.773285 44.751287
L181.845857 44.364239
" />
<path d="M181.845857 44.364239
L181.918428 44.170715
" />
<path d="M181.918428 44.170715
L181.991000 44.073953
" />
<path d="M181.991000 44.073953
L182.136142 43.977191
" />
<path d="M184.458429 46.009191
L184.458429 43.977191
" />
<path d="M184.458429 43.977191
L185.039000 43.977191
" />
<path d="M185.039000 43.977191
L185.184143 44.073953
" />
<path d="M185.184143 44.073953
L185.256714 44.170715
" />
<path d="M185.256714 44.170715
L185.329286 44.364239
" />
<path d="M185.329286 44.364239
L185.329286 44.654525
" />
<path d="M185.329286 44.654525
L185.256714 44.848049
" />
<path d="M185.256714 44.848049
L185.184143 44.944810
" />
<path d="M185.184143 44.944810
L185.039000 45.041572
" />
<path d="M185.039000 45.041572
L184.458429 45.041572
" />
<path d="M185.982429 46.009191
L185.982429 43.977191
" />
<path d="M186.708143 46.009191
L186.708143 43.977191
" />
<path d="M186.708143 43.977191
L187.579000 46.009191
" />
<path d="M187.579000 46.009191
L187.579000 43.977191
" />
<path d="M188.232142 45.912430
L188.449857 46.009191
" />
<path d="M188.449857 46.009191
L188.812714 46.009191
" />
<path d="M188.812714 46.009191
L188.957857 45.912430
" />
<path d="M188.957857 45.912430
L189.030428 45.815668
" />
<path d="M189.030428 45.815668
L189.102999 45.622144
" />
<path d="M189.102999 45.622144
L189.102999 45.428620
" />
<path d="M189.102999 45.428620
L189.030428 45.235096
" />
<path d="M189.030428 45.235096
L188.957857 45.138334
" />
<path d="M188.957857 45.138334
L188.812714 45.041572
" />
<path d="M188.812714 45.041572
L188.522428 44.944810
" />
<path d="M188.522428 44.944810
L188.377285 44.848049
" />
<path d="M188.377285 44.848049
L188.304714 44.751287
" />
<path d="M188.304714 44.751287
L188.232142 44.557763
" />
<path d="M188.232142 44.557763
L188.232142 44.364239
" />
<path d="M188.232142 44.364239
L188.304714 44.170715
" />
<path d="M188.304714 44.170715
L188.377285 44.073953
" />
<path d="M188.377285 44.073953
L188.522428 43.977191
" />
<path d="M188.522428 43.977191
L188.885285 43.977191
" />
<path d="M188.885285 43.977191
L189.102999 44.073953
" />
</g><text x="202.000000" y="49.716000"
textLength="7.721600" font-size="2.032000" lengthAdjust="spacingAndGlyphs"
text-anchor="middle" opacity="0" stroke-opacity="0">1=&gt;&gt;</text>
<g class="stroked-text"><desc>1=&gt;&gt;</desc>
<path d="M199.605142 49.624191
L198.734285 49.624191
" />
<path d="M199.169714 49.624191
L199.169714 47.592191
" />
<path d="M199.169714 47.592191
L199.024571 47.882477
" />
<path d="M199.024571 47.882477
L198.879428 48.076001
" />
<path d="M198.879428 48.076001
L198.734285 48.172763
" />
<path d="M200.258286 48.559810
L201.419429 48.559810
" />
<path d="M201.419429 49.140382
L200.258286 49.140382
" />
<path d="M202.145143 48.269525
L203.306286 48.850096
" />
<path d="M203.306286 48.850096
L202.145143 49.430668
" />
<path d="M204.032000 48.269525
L205.193143 48.850096
" />
<path d="M205.193143 48.850096
L204.032000 49.430668
" />
</g><path style="fill:#000000; fill-opacity:1.000000; stroke:none;fill-rule:evenodd;"
d="M 111.690000,77.667000
111.690000,80.067000
109.290000,80.067000
109.290000,77.667000
Z" /> 
</g>
<g style="fill:#000000; fill-opacity:1.000000; stroke:none;">
<circle cx="85.490000" cy="78.867000" r="1.200000" /> 
<path style="fill:#000000; fill-opacity:1.000000; stroke:none;fill-rule:evenodd;"
d="M 83.382000,91.370000
83.382000,88.970000
85.782000,88.970000
85.782000,91.370000
Z" /> 
<circle cx="109.582000" cy="90.170000" r="1.200000" /> 
<circle cx="168.910000" cy="96.520000" r="1.400000" /> 
</g>
<g style="fill:#000000; fill-opacity:1.000000; stroke:none;">
<circle cx="196.850000" cy="48.260000" r="1.400000" /> 
</g>
<g style="fill:none; 
stroke:#000000; stroke-width:1.600000; stroke-opacity:1; 
stroke-linecap:round; stroke-linejoin:round;">
<path d="M175.860000 50.800000
L174.660000 50.800000
" />
<path d="M175.860000 53.340000
L174.660000 53.340000
" />
<path d="M175.860000 55.880000
L174.660000 55.880000
" />
<path d="M175.860000 58.420000
L174.660000 58.420000
" />
<path d="M175.860000 60.960000
L174.660000 60.960000
" />
<path d="M175.860000 63.500000
L174.660000 63.500000
" />
<path d="M175.860000 66.040000
L174.660000 66.040000
" />
<path d="M175.860000 68.580000
L174.660000 68.580000
" />
<path d="M175.860000 71.120000
L174.660000 71.120000
" />
<path d="M175.860000 73.660000
L174.660000 73.660000
" />
<path d="M175.860000 76.200000
L174.660000 76.200000
" />
<path d="M175.860000 78.740000
L174.660000 78.740000
" />
<path d="M175.860000 81.280000
L174.660000 81.280000
" />
<path d="M175.860000 83.820000
L174.660000 83.820000
" />
<path d="M175.860000 86.360000
L174.660000 86.360000
" />
<path d="M175.860000 88.900000
L174.660000 88.900000
" />
<path d="M175.860000 91.440000
L174.660000 91.440000
" />
<path d="M175.860000 93.980000
L174.660000 93.980000
" />
<path d="M175.860000 96.520000
L174.660000 96.520000
" />
<path d="M175.860000 99.060000
L174.660000 99.060000
" />
<path d="M191.100000 99.060000
L189.900000 99.060000
" />
<path d="M191.100000 96.520000
L189.900000 96.520000
" />
<path d="M191.100000 93.980000
L189.900000 93.980000
" />
<path d="M191.100000 91.440000
L189.900000 91.440000
" />
<path d="M191.100000 88.900000
L189.900000 88.900000
" />
<path d="M191.100000 86.360000
L189.900000 86.360000
" />
<path d="M191.100000 83.820000
L189.900000 83.820000
" />
<path d="M191.100000 81.280000
L189.900000 81.280000
" />
<path d="M191.100000 78.740000
L189.900000 78.740000
" />
<path d="M191.100000 76.200000
L189.900000 76.200000
" />
<path d="M191.100000 73.660000
L189.900000 73.660000
" />
<path d="M191.100000 71.120000
L189.900000 71.120000
" />
<path d="M191.100000 68.580000
L189.900000 68.580000
" />
<path d="M191.100000 66.040000
L189.900000 66.040000
" />
<path d="M191.100000 63.500000
L189.900000 63.500000
" />
<path d="M191.100000 60.960000
L189.900000 60.960000
" />
<path d="M191.100000 58.420000
L189.900000 58.420000
" />
<path d="M191.100000 55.880000
L189.900000 55.880000
" />
<path d="M191.100000 53.340000
L189.900000 53.340000
" />
<path style="fill:#000000; fill-opacity:1.000000; stroke:none;fill-rule:evenodd;"
d="M 189.100000,50.000000
191.900000,50.000000
191.900000,51.600000
189.100000,51.600000
Z" /> 
<path style="fill:#000000; fill-opacity:1.000000; stroke:none;fill-rule:evenodd;"
d="M 177.870000,121.450000
177.870000,119.850000
180.270000,119.850000
180.270000,121.450000
Z" /> 
</g>
<g style="fill:none; 
stroke:#000000; stroke-width:1.600000; stroke-opacity:1; 
stroke-linecap:round; stroke-linejoin:round;">
<path d="M178.670000 123.190000
L179.470000 123.190000
" />
<path d="M178.670000 125.730000
L179.470000 125.730000
" />
<path d="M178.670000 128.270000
L179.470000 128.270000
" />
<path d="M186.290000 128.270000
L187.090000 128.270000
" />
<path d="M186.290000 125.730000
L187.090000 125.730000
" />
<path d="M186.290000 123.190000
L187.090000 123.190000
" />
<path d="M186.290000 120.650000
L187.090000 120.650000
" />
<path style="fill:#000000; fill-opacity:1.000000; stroke:none;fill-rule:evenodd;"
d="M 177.870000,110.020000
177.870000,108.420000
180.270000,108.420000
180.270000,110.020000
Z" /> 
</g>
<g style="fill:none; 
stroke:#000000; stroke-width:1.600000; stroke-opacity:1; 
stroke-linecap:round; stroke-linejoin:round;">
<path d="M178.670000 111.760000
L179.470000 111.760000
" />
<path d="M178.670000 114.300000
L179.470000 114.300000
" />
<path d="M178.670000 116.840000
L179.470000 116.840000
" />
<path d="M186.290000 116.840000
L187.090000 116.840000
" />
<path d="M186.290000 114.300000
L187.090000 114.300000
" />
<path d="M186.290000 111.760000
L187.090000 111.760000
" />
<path d="M186.290000 109.220000
L187.090000 109.220000
" />
<path style="fill:#000000; fill-opacity:1.000000; stroke:none;fill-rule:evenodd;"
d="M 109.290000,57.950000
109.290000,56.350000
111.690000,56.350000
111.690000,57.950000
Z" /> 
</g>
<g style="fill:none; 
stroke:#000000; stroke-width:1.600000; stroke-opacity:1; 
stroke-linecap:round; stroke-linejoin:round;">
<path d="M110.090000 59.690000
L110.890000 59.690000
" />
<path d="M110.090000 62.230000
L110.890000 62.230000
" />
<path d="M110.090000 64.770000
L110.890000 64.770000
" />
<path d="M117.710000 64.770000
L118.510000 64.770000
" />
<path d="M117.710000 62.230000
L118.510000 62.230000
" />
<path d="M117.710000 59.690000
L118.510000 59.690000
" />
<path d="M117.710000 57.150000
L118.510000 57.150000
" />
<path style="fill:#000000; fill-opacity:1.000000; stroke:none;fill-rule:evenodd;"
d="M 206.445000,51.600000
206.445000,50.000000
208.845000,50.000000
208.845000,51.600000
Z" /> 
</g>
<g style="fill:none; 
stroke:#000000; stroke-width:1.600000; stroke-opacity:1; 
stroke-linecap:round; stroke-linejoin:round;">
<path d="M207.245000 53.340000
L208.045000 53.340000
" />
<path d="M207.245000 55.880000
L208.045000 55.880000
" />
<path d="M207.245000 58.420000
L208.045000 58.420000
" />
<path d="M207.245000 60.960000
L208.045000 60.960000
" />
<path d="M207.245000 63.500000
L208.045000 63.500000
" />
<path d="M207.245000 66.040000
L208.045000 66.040000
" />
<path d="M207.245000 68.580000
L208.045000 68.580000
" />
<path d="M207.245000 71.120000
L208.045000 71.120000
" />
<path d="M207.245000 73.660000
L208.045000 73.660000
" />
<path d="M207.245000 76.200000
L208.045000 76.200000
" />
<path d="M207.245000 78.740000
L208.045000 78.740000
" />
<path d="M207.245000 81.280000
L208.045000 81.280000
" />
<path d="M207.245000 83.820000
L208.045000 83.820000
" />
<path d="M214.865000 83.820000
L215.665000 83.820000
" />
<path d="M214.865000 81.280000
L215.665000 81.280000
" />
<path d="M214.865000 78.740000
L215.665000 78.740000
" />
<path d="M214.865000 76.200000
L215.665000 76.200000
" />
<path d="M214.865000 73.660000
L215.665000 73.660000
" />
<path d="M214.865000 71.120000
L215.665000 71.120000
" />
<path d="M214.865000 68.580000
L215.665000 68.580000
" />
<path d="M214.865000 66.040000
L215.665000 66.040000
" />
<path d="M214.865000 63.500000
L215.665000 63.500000
" />
<path d="M214.865000 60.960000
L215.665000 60.960000
" />
<path d="M214.865000 58.420000
L215.665000 58.420000
" />
<path d="M214.865000 55.880000
L215.665000 55.880000
" />
<path d="M214.865000 53.340000
L215.665000 53.340000
" />
<path d="M214.865000 50.800000
L215.665000 50.800000
" />
<path style="fill:#000000; fill-opacity:1.000000; stroke:none;fill-rule:evenodd;"
d="M 206.699000,108.750000
206.699000,107.150000
209.099000,107.150000
209.099000,108.750000
Z" /> 
</g>
<g style="fill:none; 
stroke:#000000; stroke-width:1.600000; stroke-opacity:1; 
stroke-linecap:round; stroke-linejoin:round;">
<path d="M207.499000 110.490000
L208.299000 110.490000
" />
<path d="M207.499000 113.030000
L208.299000 113.030000
" />
<path d="M207.499000 115.570000
L208.299000 115.570000
" />
<path d="M207.499000 118.110000
L208.299000 118.110000
" />
<path d="M207.499000 120.650000
L208.299000 120.650000
" />
<path d="M207.499000 123.190000
L208.299000 123.190000
" />
<path d="M207.499000 125.730000
L208.299000 125.730000
" />
<path d="M207.499000 128.270000
L208.299000 128.270000
" />
<path d="M215.119000 128.270000
L215.919000 128.270000
" />
<path d="M215.119000 125.730000
L215.919000 125.730000
" />
<path d="M215.119000 123.190000
L215.919000 123.190000
" />
<path d="M215.119000 120.650000
L215.919000 120.650000
" />
<path d="M215.119000 118.110000
L215.919000 118.110000
" />
<path d="M215.119000 115.570000
L215.919000 115.570000
" />
<path d="M215.119000 113.030000
L215.919000 113.030000
" />
<path d="M215.119000 110.490000
L215.919000 110.490000
" />
<path d="M215.119000 107.950000
L215.919000 107.950000
" />
<path style="fill:#000000; fill-opacity:1.000000; stroke:none;fill-rule:evenodd;"
d="M 116.370000,120.580000
114.770000,120.580000
114.770000,118.180000
116.370000,118.180000
Z" /> 
</g>
<g style="fill:none; 
stroke:#000000; stroke-width:1.600000; stroke-opacity:1; 
stroke-linecap:round; stroke-linejoin:round;">
<path d="M118.110000 119.780000
L118.110000 118.980000
" />
<path d="M120.650000 119.780000
L120.650000 118.980000
" />
<path d="M123.190000 119.780000
L123.190000 118.980000
" />
<path d="M125.730000 119.780000
L125.730000 118.980000
" />
<path d="M128.270000 119.780000
L128.270000 118.980000
" />
<path d="M130.810000 119.780000
L130.810000 118.980000
" />
<path d="M130.810000 112.160000
L130.810000 111.360000
" />
<path d="M128.270000 112.160000
L128.270000 111.360000
" />
<path d="M125.730000 112.160000
L125.730000 111.360000
" />
<path d="M123.190000 112.160000
L123.190000 111.360000
" />
<path d="M120.650000 112.160000
L120.650000 111.360000
" />
<path d="M118.110000 112.160000
L118.110000 111.360000
" />
<path d="M115.570000 112.160000
L115.570000 111.360000
" />
<path style="fill:#000000; fill-opacity:1.000000; stroke:none;fill-rule:evenodd;"
d="M 108.750000,117.437000
108.750000,119.037000
107.150000,119.037000
107.150000,117.437000
Z" /> 
</g>
<g style="fill:#000000; fill-opacity:1.000000; stroke:none;">
<circle cx="100.330000" cy="118.237000" r="0.800000" /> 
<path style="fill:#000000; fill-opacity:1.000000; stroke:none;fill-rule:evenodd;"
d="M 108.750000,121.120000
108.750000,122.720000
107.150000,122.720000
107.150000,121.120000
Z" /> 
<circle cx="100.330000" cy="121.920000" r="0.800000" /> 
<path style="fill:#000000; fill-opacity:1.000000; stroke:none;fill-rule:evenodd;"
d="M 108.750000,111.087000
108.750000,112.687000
107.150000,112.687000
107.150000,111.087000
Z" /> 
<circle cx="100.330000" cy="111.887000" r="0.800000" /> 
<path style="fill:#000000; fill-opacity:1.000000; stroke:none;fill-rule:evenodd;"
d="M 108.750000,107.785000
108.750000,109.385000
107.150000,109.385000
107.150000,107.785000
Z" /> 
<circle cx="100.330000" cy="108.585000" r="0.800000" /> 
<path style="fill:#000000; fill-opacity:1.000000; stroke:none;fill-rule:evenodd;"
d="M 138.265000,81.445000
138.265000,79.845000
139.865000,79.845000
139.865000,81.445000
Z" /> 
<circle cx="146.685000" cy="80.645000" r="0.800000" /> 
<path style="fill:#000000; fill-opacity:1.000000; stroke:none;fill-rule:evenodd;"
d="M 108.750000,114.516000
108.750000,116.116000
107.150000,116.116000
107.150000,114.516000
Z" /> 
<circle cx="100.330000" cy="115.316000" r="0.800000" /> 
<path style="fill:#000000; fill-opacity:1.000000; stroke:none;fill-rule:evenodd;"
d="M 108.750000,124.295000
108.750000,125.895000
107.150000,125.895000
107.150000,124.295000
Z" /> 
<circle cx="100.330000" cy="125.095000" r="0.800000" /> 
<circle cx="81.180000" cy="102.160000" r="2.000000" /> 
</g>
<g style="fill:#000000; fill-opacity:1.000000; stroke:none;">
<circle cx="81.180000" cy="127.160000" r="2.000000" /> 
<path style="fill:#000000; fill-opacity:1.000000; stroke:none;fill-rule:evenodd;"
d="M 81.800000,119.400000
83.400000,119.400000
83.400000,121.000000
81.800000,121.000000
Z" /> 
</g>
<g style="fill:#000000; fill-opacity:1.000000; stroke:none;">
<circle cx="82.600000" cy="117.430000" r="0.800000" /> 
</g>
<g style="fill:#000000; fill-opacity:1.000000; stroke:none;">
<circle cx="82.600000" cy="114.660000" r="0.800000" /> 
</g>
<g style="fill:#000000; fill-opacity:1.000000; stroke:none;">
<circle cx="82.600000" cy="111.890000" r="0.800000" /> 
</g>
<g style="fill:#000000; fill-opacity:1.000000; stroke:none;">
<circle cx="82.600000" cy="109.120000" r="0.800000" /> 
</g>
<g style="fill:#000000; fill-opacity:1.000000; stroke:none;">
<circle cx="79.760000" cy="118.815000" r="0.800000" /> 
</g>
<g style="fill:#000000; fill-opacity:1.000000; stroke:none;">
<circle cx="79.760000" cy="116.045000" r="0.800000" /> 
</g>
<g style="fill:#000000; fill-opacity:1.000000; stroke:none;">
<circle cx="79.760000" cy="113.275000" r="0.800000" /> 
</g>
<g style="fill:#000000; fill-opacity:1.000000; stroke:none;">
<circle cx="79.760000" cy="110.505000" r="0.800000" /> 
<path style="fill:#000000; fill-opacity:1.000000; stroke:none;fill-rule:evenodd;"
d="M 141.590000,97.465000
141.601074,97.380884
141.648776,97.278588
141.728588,97.198776
141.830884,97.151074
141.915000,97.140000
142.565000,97.140000
142.649116,97.151074
142.751412,97.198776
142.831224,97.278588
142.878926,97.380884
142.890000,97.465000
142.890000,98.115000
142.878926,98.199116
142.831224,98.301412
142.751412,98.381224
142.649116,98.428926
142.565000,98.440000
141.915000,98.440000
141.830884,98.428926
141.728588,98.381224
141.648776,98.301412
141.601074,98.199116
141.590000,98.115000
Z" /> 
</g>
<g style="fill:#000000; fill-opacity:1.000000; stroke:none;">
<circle cx="143.510000" cy="96.520000" r="0.650000" /> 
</g>
<g style="fill:#000000; fill-opacity:1.000000; stroke:none;">
<circle cx="144.780000" cy="97.790000" r="0.650000" /> 
<path style="fill:#000000; fill-opacity:1.000000; stroke:none;fill-rule:evenodd;"
d="M 148.732000,61.031000
148.720926,61.115116
148.673224,61.217412
148.593412,61.297224
148.491116,61.344926
148.407000,61.356000
147.757000,61.356000
147.672884,61.344926
147.570588,61.297224
147.490776,61.217412
147.443074,61.115116
147.432000,61.031000
147.432000,60.381000
147.443074,60.296884
147.490776,60.194588
147.570588,60.114776
147.672884,60.067074
147.757000,60.056000
148.407000,60.056000
148.491116,60.067074
148.593412,60.114776
148.673224,60.194588
148.720926,60.296884
148.732000,60.381000
Z" /> 
</g>
<g style="fill:#000000; fill-opacity:1.000000; stroke:none;">
<circle cx="146.812000" cy="61.976000" r="0.650000" /> 
</g>
<g style="fill:#000000; fill-opacity:1.000000; stroke:none;">
<circle cx="145.542000" cy="60.706000" r="0.650000" /> 
<path style="fill:#000000; fill-opacity:1.000000; stroke:none;fill-rule:evenodd;"
d="M 145.400000,69.525000
145.411074,69.440884
145.458776,69.338588
145.538588,69.258776
145.640884,69.211074
145.725000,69.200000
146.375000,69.200000
146.459116,69.211074
146.561412,69.258776
146.641224,69.338588
146.688926,69.440884
146.700000,69.525000
146.700000,70.175000
146.688926,70.259116
146.641224,70.361412
146.561412,70.441224
146.459116,70.488926
146.375000,70.500000
145.725000,70.500000
145.640884,70.488926
145.538588,70.441224
145.458776,70.361412
145.411074,70.259116
145.400000,70.175000
Z" /> 
</g>
<g style="fill:#000000; fill-opacity:1.000000; stroke:none;">
<circle cx="147.320000" cy="68.580000" r="0.650000" /> 
</g>
<g style="fill:#000000; fill-opacity:1.000000; stroke:none;">
<circle cx="148.590000" cy="69.850000" r="0.650000" /> 
</g>
<g style="fill:#000000; fill-opacity:1.000000; stroke:none;">
<circle cx="152.400000" cy="68.580000" r="0.800000" /> 
</g>
<g style="fill:#000000; fill-opacity:1.000000; stroke:none;">
<circle cx="152.400000" cy="58.420000" r="0.800000" /> 
<circle cx="114.300000" cy="48.260000" r="0.800000" /> 
</g>
<g style="fill:#000000; fill-opacity:1.000000; stroke:none;">
<circle cx="124.460000" cy="48.260000" r="0.800000" /> 
<circle cx="139.065000" cy="77.470000" r="0.800000" /> 
</g>
<g style="fill:#000000; fill-opacity:1.000000; stroke:none;">
<circle cx="149.225000" cy="77.470000" r="0.800000" /> 
<circle cx="87.630000" cy="118.110000" r="0.800000" /> 
</g>
<g style="fill:#000000; fill-opacity:1.000000; stroke:none;">
<circle cx="97.790000" cy="118.110000" r="0.800000" /> 
<circle cx="87.630000" cy="114.554000" r="0.800000" /> 
</g>
<g style="fill:#000000; fill-opacity:1.000000; stroke:none;">
<circle cx="97.790000" cy="114.554000" r="0.800000" /> 
<circle cx="87.630000" cy="111.125000" r="0.800000" /> 
</g>
<g style="fill:#000000; fill-opacity:1.000000; stroke:none;">
<circle cx="97.790000" cy="111.125000" r="0.800000" /> 
<circle cx="87.630000" cy="107.823000" r="0.800000" /> 
</g>
<g style="fill:#000000; fill-opacity:1.000000; stroke:none;">
<circle cx="97.790000" cy="107.823000" r="0.800000" /> 
<circle cx="87.757000" cy="125.476000" r="0.800000" /> 
</g>
<g style="fill:#000000; fill-opacity:1.000000; stroke:none;">
<circle cx="97.917000" cy="125.476000" r="0.800000" /> 
<circle cx="139.700000" cy="54.610000" r="0.800000" /> 
</g>
<g style="fill:#000000; fill-opacity:1.000000; stroke:none;">
<circle cx="149.860000" cy="54.610000" r="0.800000" /> 
<circle cx="87.757000" cy="121.920000" r="0.800000" /> 
</g>
<g style="fill:#000000; fill-opacity:1.000000; stroke:none;">
<circle cx="97.917000" cy="121.920000" r="0.800000" /> 
<circle cx="158.115000" cy="102.235000" r="0.800000" /> 
</g>
<g style="fill:#000000; fill-opacity:1.000000; stroke:none;">
<circle cx="147.955000" cy="102.235000" r="0.800000" /> 
<circle cx="144.780000" cy="102.235000" r="0.800000" /> 
</g>
<g style="fill:#000000; fill-opacity:1.000000; stroke:none;">
<circle cx="134.620000" cy="102.235000" r="0.800000" /> 
<circle cx="149.225000" cy="83.820000" r="0.800000" /> 
</g>
<g style="fill:#000000; fill-opacity:1.000000; stroke:none;">
<circle cx="139.065000" cy="83.820000" r="0.800000" /> 
<circle cx="156.210000" cy="68.580000" r="0.800000" /> 
</g>
<g style="fill:#000000; fill-opacity:1.000000; stroke:none;">
<circle cx="156.210000" cy="58.420000" r="0.800000" /> 
<circle cx="118.110000" cy="75.184000" r="0.800000" /> 
</g>
<g style="fill:#000000; fill-opacity:1.000000; stroke:none;">
<circle cx="128.270000" cy="75.184000" r="0.800000" /> 
<circle cx="118.110000" cy="78.740000" r="0.800000" /> 
</g>
<g style="fill:#000000; fill-opacity:1.000000; stroke:none;">
<circle cx="128.270000" cy="78.740000" r="0.800000" /> 
<circle cx="139.065000" cy="87.630000" r="0.800000" /> 
</g>
<g style="fill:#000000; fill-opacity:1.000000; stroke:none;">
<circle cx="149.225000" cy="87.630000" r="0.800000" /> 
<circle cx="140.335000" cy="111.760000" r="0.800000" /> 
</g>
<g style="fill:#000000; fill-opacity:1.000000; stroke:none;">
<circle cx="140.335000" cy="121.920000" r="0.800000" /> 
<circle cx="139.065000" cy="91.059000" r="0.800000" /> 
</g>
<g style="fill:#000000; fill-opacity:1.000000; stroke:none;">
<circle cx="149.225000" cy="91.059000" r="0.800000" /> 
<circle cx="135.255000" cy="121.920000" r="0.800000" /> 
</g>
<g style="fill:#000000; fill-opacity:1.000000; stroke:none;">
<circle cx="135.255000" cy="111.760000" r="0.800000" /> 
<path style="fill:#000000; fill-opacity:1.000000; stroke:none;fill-rule:evenodd;"
d="M 157.110000,76.570000
157.110000,78.370000
155.310000,78.370000
155.310000,76.570000
Z" /> 
<circle cx="153.670000" cy="77.470000" r="0.900000" /> 
<path style="fill:#000000; fill-opacity:1.000000; stroke:none;fill-rule:evenodd;"
d="M 157.110000,86.730000
157.110000,88.530000
155.310000,88.530000
155.310000,86.730000
Z" /> 
</g>
<g style="fill:#000000; fill-opacity:1.000000; stroke:none;">
<circle cx="153.670000" cy="87.630000" r="0.900000" /> 
<path style="fill:#000000; fill-opacity:1.000000; stroke:none;fill-rule:evenodd;"
d="M 157.110000,96.255000
157.110000,98.055000
155.310000,98.055000
155.310000,96.255000
Z" /> 
</g>
<g style="fill:#000000; fill-opacity:1.000000; stroke:none;">
<circle cx="153.670000" cy="97.155000" r="0.900000" /> 
</g>
<g style="fill:#000000; fill-opacity:1.000000; stroke:none;">
<circle cx="114.300000" cy="52.070000" r="0.800000" /> 
</g>
<g style="fill:#000000; fill-opacity:1.000000; stroke:none;">
<circle cx="119.300000" cy="52.070000" r="0.800000" /> 
</g>
<g style="fill:#000000; fill-opacity:1.000000; stroke:none;">
<circle cx="129.540000" cy="49.530000" r="0.800000" /> 
</g>
<g style="fill:#000000; fill-opacity:1.000000; stroke:none;">
<circle cx="134.540000" cy="49.530000" r="0.800000" /> 
</g>
<g style="fill:#000000; fill-opacity:1.000000; stroke:none;">
<circle cx="198.755000" cy="71.120000" r="0.800000" /> 
</g>
<g style="fill:#000000; fill-opacity:1.000000; stroke:none;">
<circle cx="198.755000" cy="76.120000" r="0.800000" /> 
</g>
<g style="fill:#000000; fill-opacity:1.000000; stroke:none;">
<circle cx="143.002000" cy="49.784000" r="0.800000" /> 
</g>
<g style="fill:#000000; fill-opacity:1.000000; stroke:none;">
<circle cx="148.002000" cy="49.784000" r="0.800000" /> 
</g>
<g style="fill:#000000; fill-opacity:1.000000; stroke:none;">
<circle cx="196.850000" cy="112.395000" r="0.800000" /> 
</g>
<g style="fill:#000000; fill-opacity:1.000000; stroke:none;">
<circle cx="196.850000" cy="117.395000" r="0.800000" /> 
<path style="fill:#000000; fill-opacity:1.000000; stroke:none;fill-rule:evenodd;"
d="M 137.960000,56.350000
137.960000,57.950000
136.360000,57.950000
136.360000,56.350000
Z" /> 
</g>
<g style="fill:#000000; fill-opacity:1.000000; stroke:none;">
<circle cx="124.460000" cy="57.150000" r="0.800000" /> 
<circle cx="127.635000" cy="90.805000" r="1.016000" /> 
</g>
<g style="fill:#000000; fill-opacity:1.000000; stroke:none;">
<circle cx="117.475000" cy="88.265000" r="1.016000" /> 
</g>
<g style="fill:#000000; fill-opacity:1.000000; stroke:none;">
<circle cx="127.635000" cy="85.725000" r="1.016000" /> 
<path style="fill:#000000; fill-opacity:1.000000; stroke:none;fill-rule:evenodd;"
d="M 80.300000,58.500000
83.300000,58.500000
83.300000,61.500000
80.300000,61.500000
Z" /> 
</g>
<g style="fill:#000000; fill-opacity:1.000000; stroke:none;">
<circle cx="81.800000" cy="65.000000" r="1.500000" /> 
<path style="fill:#000000; fill-opacity:1.000000; stroke:none;fill-rule:evenodd;"
d="M 95.567500,72.120000
95.567500,70.120000
97.472500,70.120000
97.472500,72.120000
Z" /> 
</g>
<g style="fill:none; 
stroke:#000000; stroke-width:1.905000; stroke-opacity:1; 
stroke-linecap:round; stroke-linejoin:round;">
<path d="M99.060000 71.072500
L99.060000 71.167500
" />
<path d="M101.600000 71.072500
L101.600000 71.167500
" />
</g>
<g style="fill:#000000; fill-opacity:1.000000; stroke:none;">
<circle cx="140.081000" cy="70.993000" r="0.800000" /> 
</g>
<g style="fill:#000000; fill-opacity:1.000000; stroke:none;">
<circle cx="140.081000" cy="60.833000" r="0.800000" /> 
<circle cx="134.112000" cy="62.230000" r="0.800000" /> 
</g>
<g style="fill:#000000; fill-opacity:1.000000; stroke:none;">
<circle cx="134.112000" cy="82.230000" r="0.800000" /> 
<circle cx="125.730000" cy="62.230000" r="1.300000" /> 
</g>
<g style="fill:#000000; fill-opacity:1.000000; stroke:none;">
<circle cx="125.730000" cy="67.230000" r="1.300000" /> 
<path style="fill:#000000; fill-opacity:1.000000; stroke:none;fill-rule:evenodd;"
d="M 79.100000,90.500000
77.500000,90.500000
77.500000,88.900000
79.100000,88.900000
Z" /> 
</g>
<g style="fill:#000000; fill-opacity:1.000000; stroke:none;">
<circle cx="78.300000" cy="77.000000" r="0.800000" /> 
<circle cx="189.865000" cy="110.490000" r="0.800000" /> 
</g>
<g style="fill:#000000; fill-opacity:1.000000; stroke:none;">
<circle cx="192.405000" cy="125.730000" r="0.800000" /> 
</g>
<g style="fill:#000000; fill-opacity:1.000000; stroke:none;">
<circle cx="196.850000" cy="54.610000" r="0.800000" /> 
</g>
<g style="fill:#000000; fill-opacity:1.000000; stroke:none;">
<circle cx="200.025000" cy="52.070000" r="0.800000" /> 
</g>
<g style="fill:#000000; fill-opacity:1.000000; stroke:none;">
<circle cx="192.405000" cy="123.190000" r="0.800000" /> 
</g>
<g style="fill:#000000; fill-opacity:1.000000; stroke:none;">
<circle cx="192.405000" cy="114.300000" r="0.800000" /> 
</g>
<g style="fill:none; 
stroke:#000000; stroke-width:0.500000; stroke-opacity:1; 
stroke-linecap:round; stroke-linejoin:round;">
<path d="M111.760000 119.380000
L115.570000 123.190000
" />
<path d="M125.730000 120.650000
L125.730000 119.380000
" />
<path d="M111.760000 109.855000
L111.760000 119.380000
" />
<path d="M115.570000 123.190000
L123.190000 123.190000
" />
<path d="M107.950000 108.712000
L111.125000 109.220000
" />
<path d="M111.125000 109.220000
L111.760000 109.855000
" />
<path d="M123.190000 123.190000
L125.730000 120.650000
" />
<path d="M135.001000 96.266000
L135.001000 92.456000
" />
<path d="M120.015000 116.205000
L114.935000 116.205000
" />
<path d="M114.935000 102.235000
L129.032000 102.235000
" />
<path d="M129.032000 102.235000
L135.001000 96.266000
" />
<path d="M136.398000 91.059000
L139.065000 91.059000
" />
<path d="M135.001000 92.456000
L136.398000 91.059000
" />
<path d="M113.030000 104.140000
L114.935000 102.235000
" />
<path d="M113.030000 114.300000
L113.030000 104.140000
" />
<path d="M120.650000 116.840000
L120.015000 116.205000
" />
<path d="M114.935000 116.205000
L113.030000 114.300000
" />
<path d="M120.650000 119.380000
L120.650000 116.840000
" />
</g>
<g style="fill:none; 
stroke:#000000; stroke-width:0.800000; stroke-opacity:1; 
stroke-linecap:round; stroke-linejoin:round;">
<path d="M110.490000 124.155000
L110.490000 119.380000
" />
<path d="M145.100000 97.470000
L144.780000 97.790000
" />
<path d="M141.986000 87.630000
L145.100000 90.744000
" />
<path d="M109.550000 125.095000
L110.490000 124.155000
" />
<path d="M145.100000 90.744000
L145.100000 97.470000
" />
<path d="M110.490000 119.380000
L109.220000 118.110000
" />
<path d="M107.950000 125.095000
L109.550000 125.095000
" />
<path d="M109.220000 118.110000
L107.950000 118.110000
" />
<path d="M109.855000 111.760000
L110.490000 112.395000
" />
<path d="M110.490000 112.395000
L110.490000 116.840000
" />
<path d="M107.950000 111.760000
L109.855000 111.760000
" />
<path d="M139.065000 87.630000
L141.986000 87.630000
" />
<path d="M110.490000 116.840000
L109.220000 118.110000
" />
</g>
<g style="fill:none; 
stroke:#000000; stroke-width:0.500000; stroke-opacity:1; 
stroke-linecap:round; stroke-linejoin:round;">
<path d="M154.305000 104.775000
L151.765000 102.235000
" />
<path d="M151.765000 102.235000
L147.955000 102.235000
" />
<path d="M185.420000 104.775000
L186.690000 106.045000
" />
<path d="M186.690000 109.220000
L186.690000 106.045000
" />
<path d="M170.180000 104.775000
L154.305000 104.775000
" />
<path d="M170.180000 104.775000
L185.420000 104.775000
" />
<path d="M189.865000 123.190000
L192.405000 125.730000
" />
<path d="M193.040000 75.565000
L196.215000 72.390000
" />
<path d="M196.850000 67.310000
L196.850000 54.610000
" />
<path d="M196.215000 72.390000
L196.215000 67.945000
" />
<path d="M193.040000 107.315000
L189.865000 110.490000
" />
<path d="M189.865000 110.490000
L189.865000 123.190000
" />
<path d="M196.215000 67.945000
L196.850000 67.310000
" />
<path d="M193.040000 107.315000
L193.040000 75.565000
" />
<path d="M201.295000 85.090000
L194.945000 91.440000
" />
<path d="M194.945000 91.440000
L194.945000 113.665000
" />
<path d="M200.025000 57.150000
L200.025000 52.070000
" />
<path d="M201.295000 58.420000
L201.295000 85.090000
" />
<path d="M120.650000 109.855000
L121.285000 109.220000
" />
<path d="M192.405000 114.300000
L192.405000 123.190000
" />
<path d="M120.650000 111.760000
L120.650000 109.855000
" />
<path d="M194.945000 113.665000
L194.310000 114.300000
" />
<path d="M132.715000 109.220000
L135.255000 111.760000
" />
<path d="M194.310000 114.300000
L192.405000 114.300000
" />
<path d="M200.025000 57.150000
L201.295000 58.420000
" />
<path d="M121.285000 109.220000
L132.715000 109.220000
" />
<path d="M150.495000 71.755000
L152.400000 69.850000
" />
<path d="M139.065000 73.660000
L146.050000 73.660000
" />
<path d="M137.795000 74.930000
L137.795000 76.200000
" />
<path d="M146.050000 73.660000
L147.955000 71.755000
" />
<path d="M147.955000 71.755000
L150.495000 71.755000
" />
<path d="M137.795000 74.930000
L139.065000 73.660000
" />
<path d="M152.400000 68.580000
L152.400000 69.850000
" />
<path d="M137.795000 76.200000
L139.065000 77.470000
" />
</g> 
</svg>
