<?xml version="1.0" standalone="no"?>
 <!DOCTYPE svg PUBLIC "-//W3C//DTD SVG 1.1//EN" 
 "http://www.w3.org/Graphics/SVG/1.1/DTD/svg11.dtd"> 
<svg
  xmlns:svg="http://www.w3.org/2000/svg"
  xmlns="http://www.w3.org/2000/svg"
  xmlns:xlink="http://www.w3.org/1999/xlink"
  version="1.1"
  width="297.002200mm" height="210.007200mm" viewBox="0.000000 0.000000 297.002200 210.007200">
<title>SVG Image created as pic_programmer-F_Courtyard.svg date 2025/10/02 18:46:04 </title>
  <desc>Image generated by PCBNEW </desc>
<g style="fill:#000000; fill-opacity:1.000000;stroke:#000000; stroke-opacity:1.000000;
stroke-linecap:round; stroke-linejoin:round;"
 transform="translate(0 0) scale(1 1)">
</g>
<g style="fill:none; 
stroke:#000000; stroke-width:0.050000; stroke-opacity:1; 
stroke-linecap:round; stroke-linejoin:round;">
<path d="M84.040000 75.367000
L84.040000 82.367000
" />
<path d="M84.040000 82.367000
L111.940000 82.367000
" />
<path d="M111.940000 75.367000
L84.040000 75.367000
" />
<path d="M111.940000 82.367000
L111.940000 75.367000
" />
<path d="M83.132000 86.670000
L83.132000 93.670000
" />
<path d="M83.132000 93.670000
L111.032000 93.670000
" />
<path d="M111.032000 86.670000
L83.132000 86.670000
" />
<path d="M111.032000 93.670000
L111.032000 86.670000
" />
<circle cx="77.470000" cy="135.890000" r="4.550000" /> 
<circle cx="158.750000" cy="135.890000" r="4.550000" /> 
<circle cx="229.870000" cy="135.890000" r="4.550000" /> 
<circle cx="229.870000" cy="44.450000" r="4.550000" /> 
<circle cx="158.750000" cy="44.450000" r="4.550000" /> 
<circle cx="77.470000" cy="44.450000" r="4.550000" /> 
</g>
<g style="fill:none; 
stroke:#000000; stroke-width:0.150000; stroke-opacity:1; 
stroke-linecap:round; stroke-linejoin:round;">
<path d="M165.880000 93.430000
L170.880000 93.430000
" />
<path d="M165.880000 99.430000
L165.880000 93.430000
" />
<path d="M169.380000 24.930000
L174.880000 24.930000
" />
<path d="M169.380000 39.930000
L169.380000 24.930000
" />
<path d="M170.880000 39.930000
L169.380000 39.930000
" />
<path d="M170.880000 93.430000
L170.880000 39.930000
" />
<path d="M170.880000 99.430000
L165.880000 99.430000
" />
<path d="M170.880000 107.430000
L170.880000 99.430000
" />
<path d="M174.880000 24.930000
L174.880000 39.930000
" />
<path d="M174.880000 39.930000
L194.880000 39.930000
" />
<path d="M194.880000 39.930000
L194.880000 44.930000
" />
<path d="M194.880000 44.930000
L199.880000 44.930000
" />
<path d="M194.880000 51.430000
L194.880000 107.430000
" />
<path d="M194.880000 107.430000
L170.880000 107.430000
" />
<path d="M199.880000 44.930000
L199.880000 51.430000
" />
<path d="M199.880000 51.430000
L194.880000 51.430000
" />
</g>
<g style="fill:none; 
stroke:#000000; stroke-width:0.050000; stroke-opacity:1; 
stroke-linecap:round; stroke-linejoin:round;">
<path d="M177.520000 119.050000
L177.520000 129.850000
" />
<path d="M177.520000 129.850000
L188.220000 129.850000
" />
<path d="M188.220000 119.050000
L177.520000 119.050000
" />
<path d="M188.220000 129.850000
L188.220000 119.050000
" />
<path d="M177.520000 107.620000
L177.520000 118.420000
" />
<path d="M177.520000 118.420000
L188.220000 118.420000
" />
<path d="M188.220000 107.620000
L177.520000 107.620000
" />
<path d="M188.220000 118.420000
L188.220000 107.620000
" />
<path d="M109.040000 55.600000
L109.040000 66.300000
" />
<path d="M109.040000 66.300000
L119.590000 66.300000
" />
<path d="M119.590000 55.600000
L109.040000 55.600000
" />
<path d="M119.590000 66.300000
L119.590000 55.600000
" />
<path d="M206.095000 49.200000
L206.095000 85.450000
" />
<path d="M206.095000 85.450000
L216.795000 85.450000
" />
<path d="M216.795000 49.200000
L206.095000 49.200000
" />
<path d="M216.795000 85.450000
L216.795000 49.200000
" />
<path d="M206.349000 106.350000
L206.349000 129.850000
" />
<path d="M206.349000 129.850000
L217.049000 129.850000
" />
<path d="M217.049000 106.350000
L206.349000 106.350000
" />
<path d="M217.049000 129.850000
L217.049000 106.350000
" />
<path d="M114.020000 110.280000
L114.020000 120.830000
" />
<path d="M114.020000 120.830000
L132.370000 120.830000
" />
<path d="M132.370000 110.280000
L114.020000 110.280000
" />
<path d="M132.370000 120.830000
L132.370000 110.280000
" />
<path d="M99.280000 116.987000
L99.280000 119.487000
" />
<path d="M99.280000 119.487000
L109.000000 119.487000
" />
<path d="M109.000000 116.987000
L99.280000 116.987000
" />
<path d="M109.000000 119.487000
L109.000000 116.987000
" />
<path d="M99.280000 120.670000
L99.280000 123.170000
" />
<path d="M99.280000 123.170000
L109.000000 123.170000
" />
<path d="M109.000000 120.670000
L99.280000 120.670000
" />
<path d="M109.000000 123.170000
L109.000000 120.670000
" />
<path d="M99.280000 110.637000
L99.280000 113.137000
" />
<path d="M99.280000 113.137000
L109.000000 113.137000
" />
<path d="M109.000000 110.637000
L99.280000 110.637000
" />
<path d="M109.000000 113.137000
L109.000000 110.637000
" />
<path d="M99.280000 107.335000
L99.280000 109.835000
" />
<path d="M99.280000 109.835000
L109.000000 109.835000
" />
<path d="M109.000000 107.335000
L99.280000 107.335000
" />
<path d="M109.000000 109.835000
L109.000000 107.335000
" />
<path d="M138.015000 79.395000
L138.015000 81.895000
" />
<path d="M138.015000 81.895000
L147.735000 81.895000
" />
<path d="M147.735000 79.395000
L138.015000 79.395000
" />
<path d="M147.735000 81.895000
L147.735000 79.395000
" />
<path d="M99.280000 114.066000
L99.280000 116.566000
" />
<path d="M99.280000 116.566000
L109.000000 116.566000
" />
<path d="M109.000000 114.066000
L99.280000 114.066000
" />
<path d="M109.000000 116.566000
L109.000000 114.066000
" />
<path d="M99.280000 123.845000
L99.280000 126.345000
" />
<path d="M99.280000 126.345000
L109.000000 126.345000
" />
<path d="M109.000000 123.845000
L99.280000 123.845000
" />
<path d="M109.000000 126.345000
L109.000000 123.845000
" />
<path d="M64.990000 98.730000
L64.990000 130.590000
" />
<path d="M64.990000 130.590000
L84.910000 130.590000
" />
<path d="M84.910000 98.730000
L64.990000 98.730000
" />
<path d="M84.910000 130.590000
L84.910000 98.730000
" />
<path d="M140.780000 95.060000
L140.780000 99.800000
" />
<path d="M140.780000 95.060000
L146.240000 95.060000
" />
<path d="M146.240000 99.800000
L140.780000 99.800000
" />
<path d="M146.240000 99.800000
L146.240000 95.060000
" />
<path d="M144.082000 58.696000
L144.082000 63.436000
" />
<path d="M144.082000 58.696000
L149.542000 58.696000
" />
<path d="M149.542000 63.436000
L144.082000 63.436000
" />
<path d="M149.542000 63.436000
L149.542000 58.696000
" />
<path d="M144.590000 67.120000
L144.590000 71.860000
" />
<path d="M144.590000 67.120000
L150.050000 67.120000
" />
<path d="M150.050000 71.860000
L144.590000 71.860000
" />
<path d="M150.050000 71.860000
L150.050000 67.120000
" />
<path d="M150.900000 57.370000
L150.900000 69.630000
" />
<path d="M150.900000 69.630000
L153.900000 69.630000
" />
<path d="M153.900000 57.370000
L150.900000 57.370000
" />
<path d="M153.900000 69.630000
L153.900000 57.370000
" />
<path d="M113.250000 46.760000
L113.250000 49.760000
" />
<path d="M113.250000 49.760000
L125.510000 49.760000
" />
<path d="M125.510000 46.760000
L113.250000 46.760000
" />
<path d="M125.510000 49.760000
L125.510000 46.760000
" />
<path d="M138.015000 75.970000
L138.015000 78.970000
" />
<path d="M138.015000 78.970000
L150.275000 78.970000
" />
<path d="M150.275000 75.970000
L138.015000 75.970000
" />
<path d="M150.275000 78.970000
L150.275000 75.970000
" />
<path d="M86.580000 116.610000
L86.580000 119.610000
" />
<path d="M86.580000 119.610000
L98.840000 119.610000
" />
<path d="M98.840000 116.610000
L86.580000 116.610000
" />
<path d="M98.840000 119.610000
L98.840000 116.610000
" />
<path d="M86.580000 113.054000
L86.580000 116.054000
" />
<path d="M86.580000 116.054000
L98.840000 116.054000
" />
<path d="M98.840000 113.054000
L86.580000 113.054000
" />
<path d="M98.840000 116.054000
L98.840000 113.054000
" />
<path d="M86.580000 109.625000
L86.580000 112.625000
" />
<path d="M86.580000 112.625000
L98.840000 112.625000
" />
<path d="M98.840000 109.625000
L86.580000 109.625000
" />
<path d="M98.840000 112.625000
L98.840000 109.625000
" />
<path d="M86.580000 106.323000
L86.580000 109.323000
" />
<path d="M86.580000 109.323000
L98.840000 109.323000
" />
<path d="M98.840000 106.323000
L86.580000 106.323000
" />
<path d="M98.840000 109.323000
L98.840000 106.323000
" />
<path d="M86.707000 123.976000
L86.707000 126.976000
" />
<path d="M86.707000 126.976000
L98.967000 126.976000
" />
<path d="M98.967000 123.976000
L86.707000 123.976000
" />
<path d="M98.967000 126.976000
L98.967000 123.976000
" />
<path d="M138.650000 53.110000
L138.650000 56.110000
" />
<path d="M138.650000 56.110000
L150.910000 56.110000
" />
<path d="M150.910000 53.110000
L138.650000 53.110000
" />
<path d="M150.910000 56.110000
L150.910000 53.110000
" />
<path d="M86.707000 120.420000
L86.707000 123.420000
" />
<path d="M86.707000 123.420000
L98.967000 123.420000
" />
<path d="M98.967000 120.420000
L86.707000 120.420000
" />
<path d="M98.967000 123.420000
L98.967000 120.420000
" />
<path d="M146.905000 100.735000
L146.905000 103.735000
" />
<path d="M146.905000 103.735000
L159.165000 103.735000
" />
<path d="M159.165000 100.735000
L146.905000 100.735000
" />
<path d="M159.165000 103.735000
L159.165000 100.735000
" />
<path d="M133.570000 100.735000
L133.570000 103.735000
" />
<path d="M133.570000 103.735000
L145.830000 103.735000
" />
<path d="M145.830000 100.735000
L133.570000 100.735000
" />
<path d="M145.830000 103.735000
L145.830000 100.735000
" />
<path d="M138.015000 82.320000
L138.015000 85.320000
" />
<path d="M138.015000 85.320000
L150.275000 85.320000
" />
<path d="M150.275000 82.320000
L138.015000 82.320000
" />
<path d="M150.275000 85.320000
L150.275000 82.320000
" />
<path d="M154.710000 57.370000
L154.710000 69.630000
" />
<path d="M154.710000 69.630000
L157.710000 69.630000
" />
<path d="M157.710000 57.370000
L154.710000 57.370000
" />
<path d="M157.710000 69.630000
L157.710000 57.370000
" />
<path d="M117.060000 73.684000
L117.060000 76.684000
" />
<path d="M117.060000 76.684000
L129.320000 76.684000
" />
<path d="M129.320000 73.684000
L117.060000 73.684000
" />
<path d="M129.320000 76.684000
L129.320000 73.684000
" />
<path d="M117.060000 77.240000
L117.060000 80.240000
" />
<path d="M117.060000 80.240000
L129.320000 80.240000
" />
<path d="M129.320000 77.240000
L117.060000 77.240000
" />
<path d="M129.320000 80.240000
L129.320000 77.240000
" />
<path d="M138.015000 86.130000
L138.015000 89.130000
" />
<path d="M138.015000 89.130000
L150.275000 89.130000
" />
<path d="M150.275000 86.130000
L138.015000 86.130000
" />
<path d="M150.275000 89.130000
L150.275000 86.130000
" />
<path d="M138.835000 110.710000
L138.835000 122.970000
" />
<path d="M138.835000 122.970000
L141.835000 122.970000
" />
<path d="M141.835000 110.710000
L138.835000 110.710000
" />
<path d="M141.835000 122.970000
L141.835000 110.710000
" />
<path d="M138.015000 89.559000
L138.015000 92.559000
" />
<path d="M138.015000 92.559000
L150.275000 92.559000
" />
<path d="M150.275000 89.559000
L138.015000 89.559000
" />
<path d="M150.275000 92.559000
L150.275000 89.559000
" />
<path d="M133.755000 110.710000
L133.755000 122.970000
" />
<path d="M133.755000 122.970000
L136.755000 122.970000
" />
<path d="M136.755000 110.710000
L133.755000 110.710000
" />
<path d="M136.755000 122.970000
L136.755000 110.710000
" />
<path d="M151.720000 74.260000
L151.720000 80.680000
" />
<path d="M151.720000 80.680000
L158.150000 80.680000
" />
<path d="M158.150000 74.260000
L151.720000 74.260000
" />
<path d="M158.150000 80.680000
L158.150000 74.260000
" />
<path d="M151.720000 84.420000
L151.720000 90.840000
" />
<path d="M151.720000 90.840000
L158.150000 90.840000
" />
<path d="M158.150000 84.420000
L151.720000 84.420000
" />
<path d="M158.150000 90.840000
L158.150000 84.420000
" />
<path d="M151.720000 93.945000
L151.720000 100.365000
" />
<path d="M151.720000 100.365000
L158.150000 100.365000
" />
<path d="M158.150000 93.945000
L151.720000 93.945000
" />
<path d="M158.150000 100.365000
L158.150000 93.945000
" />
<path d="M113.250000 50.220000
L113.250000 53.920000
" />
<path d="M113.250000 53.920000
L120.350000 53.920000
" />
<path d="M120.350000 50.220000
L113.250000 50.220000
" />
<path d="M120.350000 53.920000
L120.350000 50.220000
" />
<path d="M128.490000 47.680000
L128.490000 51.380000
" />
<path d="M128.490000 51.380000
L135.590000 51.380000
" />
<path d="M135.590000 47.680000
L128.490000 47.680000
" />
<path d="M135.590000 51.380000
L135.590000 47.680000
" />
<path d="M196.905000 70.070000
L196.905000 77.170000
" />
<path d="M196.905000 77.170000
L200.605000 77.170000
" />
<path d="M200.605000 70.070000
L196.905000 70.070000
" />
<path d="M200.605000 77.170000
L200.605000 70.070000
" />
<path d="M141.952000 47.934000
L141.952000 51.634000
" />
<path d="M141.952000 51.634000
L149.052000 51.634000
" />
<path d="M149.052000 47.934000
L141.952000 47.934000
" />
<path d="M149.052000 51.634000
L149.052000 47.934000
" />
<path d="M195.000000 111.345000
L195.000000 118.445000
" />
<path d="M195.000000 118.445000
L198.700000 118.445000
" />
<path d="M198.700000 111.345000
L195.000000 111.345000
" />
<path d="M198.700000 118.445000
L198.700000 111.345000
" />
<path d="M123.410000 55.900000
L123.410000 58.400000
" />
<path d="M123.410000 58.400000
L138.210000 58.400000
" />
<path d="M138.210000 55.900000
L123.410000 55.900000
" />
<path d="M138.210000 58.400000
L138.210000 55.900000
" />
</g>
<g style="fill:none; 
stroke:#000000; stroke-width:0.150000; stroke-opacity:1; 
stroke-linecap:round; stroke-linejoin:round;">
<path d="M115.555000 86.765000
L118.305000 84.015000
" />
<path d="M115.555000 89.765000
L115.555000 86.765000
" />
<path d="M118.305000 84.015000
L130.555000 84.015000
" />
<path d="M118.305000 92.515000
L115.555000 89.765000
" />
<path d="M130.555000 84.015000
L130.555000 92.515000
" />
<path d="M130.555000 92.515000
L118.305000 92.515000
" />
</g>
<g style="fill:none; 
stroke:#000000; stroke-width:0.050000; stroke-opacity:1; 
stroke-linecap:round; stroke-linejoin:round;">
<path d="M75.050000 57.250000
L75.050000 67.750000
" />
<path d="M88.050000 57.250000
L75.050000 57.250000
" />
<path d="M88.050000 57.250000
L88.050000 67.750000
" />
<path d="M88.050000 67.750000
L75.050000 67.750000
" />
<path d="M93.810000 51.410000
L93.810000 72.370000
" />
<path d="M93.810000 72.370000
L104.310000 72.370000
" />
<path d="M104.310000 51.410000
L93.810000 51.410000
" />
<path d="M104.310000 72.370000
L104.310000 51.410000
" />
<path d="M138.581000 59.783000
L138.581000 72.043000
" />
<path d="M138.581000 72.043000
L141.581000 72.043000
" />
<path d="M141.581000 59.783000
L138.581000 59.783000
" />
<path d="M141.581000 72.043000
L141.581000 59.783000
" />
<path d="M130.612000 61.180000
L130.612000 83.280000
" />
<path d="M130.612000 83.280000
L137.612000 83.280000
" />
<path d="M137.612000 61.180000
L130.612000 61.180000
" />
<path d="M137.612000 83.280000
L137.612000 61.180000
" />
<circle cx="125.730000" cy="64.730000" r="4.350000" /> 
<path d="M77.050000 75.950000
L77.050000 90.750000
" />
<path d="M77.050000 90.750000
L79.550000 90.750000
" />
<path d="M79.550000 75.950000
L77.050000 75.950000
" />
<path d="M79.550000 90.750000
L79.550000 75.950000
" />
</g> 
</svg>
