<?xml version="1.0" standalone="no"?>
 <!DOCTYPE svg PUBLIC "-//W3C//DTD SVG 1.1//EN" 
 "http://www.w3.org/Graphics/SVG/1.1/DTD/svg11.dtd"> 
<svg
  xmlns:svg="http://www.w3.org/2000/svg"
  xmlns="http://www.w3.org/2000/svg"
  xmlns:xlink="http://www.w3.org/1999/xlink"
  version="1.1"
  width="297.002200mm" height="210.007200mm" viewBox="0.000000 0.000000 297.002200 210.007200">
<title>SVG Image created as pic_programmer-B_Fab.svg date 2025/10/02 18:46:04 </title>
  <desc>Image generated by PCBNEW </desc>
<g style="fill:#000000; fill-opacity:1.000000;stroke:#000000; stroke-opacity:1.000000;
stroke-linecap:round; stroke-linejoin:round;"
 transform="translate(0 0) scale(1 1)">
</g>
<g style="fill:none; 
stroke:#000000; stroke-width:0.150000; stroke-opacity:1; 
stroke-linecap:round; stroke-linejoin:round;">
<text x="148.082000" y="96.390000"
transform="scale(-1 1) translate(-296.164000 0)"
textLength="6.107143" font-size="1.333333" lengthAdjust="spacingAndGlyphs"
text-anchor="middle" opacity="0" stroke-opacity="0">JUMPER</text>
<g class="stroked-text"><desc>JUMPER</desc>
<path d="M150.486761 95.344819
L150.486761 96.059104
" />
<path d="M150.486761 96.059104
L150.534380 96.201961
" />
<path d="M150.534380 96.201961
L150.629618 96.297200
" />
<path d="M150.629618 96.297200
L150.772475 96.344819
" />
<path d="M150.772475 96.344819
L150.867713 96.344819
" />
<path d="M150.010570 95.344819
L150.010570 96.154342
" />
<path d="M150.010570 96.154342
L149.962951 96.249580
" />
<path d="M149.962951 96.249580
L149.915332 96.297200
" />
<path d="M149.915332 96.297200
L149.820094 96.344819
" />
<path d="M149.820094 96.344819
L149.629618 96.344819
" />
<path d="M149.629618 96.344819
L149.534380 96.297200
" />
<path d="M149.534380 96.297200
L149.486761 96.249580
" />
<path d="M149.486761 96.249580
L149.439142 96.154342
" />
<path d="M149.439142 96.154342
L149.439142 95.344819
" />
<path d="M148.962951 96.344819
L148.962951 95.344819
" />
<path d="M148.962951 95.344819
L148.629618 96.059104
" />
<path d="M148.629618 96.059104
L148.296285 95.344819
" />
<path d="M148.296285 95.344819
L148.296285 96.344819
" />
<path d="M147.820094 96.344819
L147.820094 95.344819
" />
<path d="M147.820094 95.344819
L147.439142 95.344819
" />
<path d="M147.439142 95.344819
L147.343904 95.392438
" />
<path d="M147.343904 95.392438
L147.296285 95.440057
" />
<path d="M147.296285 95.440057
L147.248666 95.535295
" />
<path d="M147.248666 95.535295
L147.248666 95.678152
" />
<path d="M147.248666 95.678152
L147.296285 95.773390
" />
<path d="M147.296285 95.773390
L147.343904 95.821009
" />
<path d="M147.343904 95.821009
L147.439142 95.868628
" />
<path d="M147.439142 95.868628
L147.820094 95.868628
" />
<path d="M146.820094 95.821009
L146.486761 95.821009
" />
<path d="M146.343904 96.344819
L146.820094 96.344819
" />
<path d="M146.820094 96.344819
L146.820094 95.344819
" />
<path d="M146.820094 95.344819
L146.343904 95.344819
" />
<path d="M145.343904 96.344819
L145.677237 95.868628
" />
<path d="M145.915332 96.344819
L145.915332 95.344819
" />
<path d="M145.915332 95.344819
L145.534380 95.344819
" />
<path d="M145.534380 95.344819
L145.439142 95.392438
" />
<path d="M145.439142 95.392438
L145.391523 95.440057
" />
<path d="M145.391523 95.440057
L145.343904 95.535295
" />
<path d="M145.343904 95.535295
L145.343904 95.678152
" />
<path d="M145.343904 95.678152
L145.391523 95.773390
" />
<path d="M145.391523 95.773390
L145.439142 95.821009
" />
<path d="M145.439142 95.821009
L145.534380 95.868628
" />
<path d="M145.534380 95.868628
L145.915332 95.868628
" />
</g></g> 
</svg>
