<?xml version="1.0" standalone="no"?>
 <!DOCTYPE svg PUBLIC "-//W3C//DTD SVG 1.1//EN" 
 "http://www.w3.org/Graphics/SVG/1.1/DTD/svg11.dtd"> 
<svg
  xmlns:svg="http://www.w3.org/2000/svg"
  xmlns="http://www.w3.org/2000/svg"
  xmlns:xlink="http://www.w3.org/1999/xlink"
  version="1.1"
  width="297.002200mm" height="210.007200mm" viewBox="0.000000 0.000000 297.002200 210.007200">
<title>SVG Image created as pic_programmer-B_Silkscreen.svg date 2025/10/02 18:46:04 </title>
  <desc>Image generated by PCBNEW </desc>
<g style="fill:#000000; fill-opacity:1.000000;stroke:#000000; stroke-opacity:1.000000;
stroke-linecap:round; stroke-linejoin:round;"
 transform="translate(0 0) scale(1 1)">
</g>
<g style="fill:none; 
stroke:#000000; stroke-width:0.150000; stroke-opacity:1; 
stroke-linecap:round; stroke-linejoin:round;">
<text x="148.082000" y="100.090000"
transform="scale(-1 1) translate(-296.164000 0)"
textLength="2.964286" font-size="1.333333" lengthAdjust="spacingAndGlyphs"
text-anchor="middle" opacity="0" stroke-opacity="0">JP1</text>
<g class="stroked-text"><desc>JP1</desc>
<path d="M148.915333 99.044819
L148.915333 99.759104
" />
<path d="M148.915333 99.759104
L148.962952 99.901961
" />
<path d="M148.962952 99.901961
L149.058190 99.997200
" />
<path d="M149.058190 99.997200
L149.201047 100.044819
" />
<path d="M149.201047 100.044819
L149.296285 100.044819
" />
<path d="M148.439142 100.044819
L148.439142 99.044819
" />
<path d="M148.439142 99.044819
L148.058190 99.044819
" />
<path d="M148.058190 99.044819
L147.962952 99.092438
" />
<path d="M147.962952 99.092438
L147.915333 99.140057
" />
<path d="M147.915333 99.140057
L147.867714 99.235295
" />
<path d="M147.867714 99.235295
L147.867714 99.378152
" />
<path d="M147.867714 99.378152
L147.915333 99.473390
" />
<path d="M147.915333 99.473390
L147.962952 99.521009
" />
<path d="M147.962952 99.521009
L148.058190 99.568628
" />
<path d="M148.058190 99.568628
L148.439142 99.568628
" />
<path d="M146.915333 100.044819
L147.486761 100.044819
" />
<path d="M147.201047 100.044819
L147.201047 99.044819
" />
<path d="M147.201047 99.044819
L147.296285 99.187676
" />
<path d="M147.296285 99.187676
L147.391523 99.282914
" />
<path d="M147.391523 99.282914
L147.486761 99.330533
" />
</g></g>
<g style="fill:none; 
stroke:#000000; stroke-width:0.120000; stroke-opacity:1; 
stroke-linecap:round; stroke-linejoin:round;">
<path d="M146.682000 96.790000
L149.482000 96.790000
" />
<path d="M146.682000 98.790000
L146.682000 96.790000
" />
<path d="M149.482000 96.790000
L149.482000 98.790000
" />
<path d="M149.482000 98.790000
L146.682000 98.790000
" />
</g> 
</svg>
